<svg id="Слой_1" data-name="Слой 1" xmlns="http://www.w3.org/2000/svg" xmlns:xlink="http://www.w3.org/1999/xlink" viewBox="0 0 3434.49 2575.04"><defs><style>.cls-1{fill:#f2f2f2;}.cls-2{fill:#1c6476;}.cls-3{fill:#1d464e;}.cls-4{fill:#ff8f6b;}.cls-5{fill:#f08765;}.cls-6{fill:#ffedbb;}.cls-7{fill:#f7e6b5;}.cls-8{fill:#001f52;}.cls-9{fill:#001f6b;}.cls-10{fill:url(#Безымянный_градиент);}.cls-11{fill:#d6ae8a;}.cls-12{fill:#bb1e55;}.cls-13{fill:#8d0042;}.cls-14{fill:url(#Безымянный_градиент_2);}.cls-15{fill:#fec3a5;}.cls-16{fill:url(#Безымянный_градиент_3);}.cls-17{fill:url(#Безымянный_градиент_4);}.cls-18{fill:url(#Безымянный_градиент_5);}.cls-19{fill:#febe9d;}.cls-20{fill:url(#Безымянный_градиент_6);}.cls-21{fill:url(#Безымянный_градиент_7);}.cls-22{fill:#fec8ad;}.cls-23{fill:#fed2bc;}.cls-24{fill:#d5c4ab;}.cls-25{fill:#011635;}.cls-26{fill:#ff8c67;}.cls-27{fill:url(#Безымянный_градиент_8);}</style><linearGradient id="Безымянный_градиент" x1="2665.65" y1="2064.07" x2="2803.01" y2="2064.07" gradientTransform="matrix(1, 0, 0, -1, 0, 3164)" gradientUnits="userSpaceOnUse"><stop offset="0" stop-color="#fad8ba"/><stop offset="1" stop-color="#f6c89f"/></linearGradient><linearGradient id="Безымянный_градиент_2" x1="2366.02" y1="2132.32" x2="2742.31" y2="2132.32" xlink:href="#Безымянный_градиент"/><linearGradient id="Безымянный_градиент_3" x1="8841.28" y1="1413.32" x2="8956.07" y2="1413.32" gradientTransform="matrix(-0.99, 0.11, -0.11, -0.99, 9769.59, 2463.28)" xlink:href="#Безымянный_градиент"/><linearGradient id="Безымянный_градиент_4" x1="9062.86" y1="962.51" x2="9251.93" y2="962.51" gradientTransform="translate(9834.16 3164) rotate(180)" xlink:href="#Безымянный_градиент"/><linearGradient id="Безымянный_градиент_5" x1="9170.39" y1="1136.57" x2="9315.43" y2="1136.57" gradientTransform="translate(9834.16 3164) rotate(180)" xlink:href="#Безымянный_градиент"/><linearGradient id="Безымянный_градиент_6" x1="4397.08" y1="1076.85" x2="4395.47" y2="935.48" gradientTransform="matrix(-0.78, 0.63, -0.63, -0.78, 7221.93, 58.3)" xlink:href="#Безымянный_градиент"/><linearGradient id="Безымянный_градиент_7" x1="4579.12" y1="1018.36" x2="4431.33" y2="1021.57" gradientTransform="translate(7701.27 3164) rotate(180)" xlink:href="#Безымянный_градиент"/><linearGradient id="Безымянный_градиент_8" x1="4437.53" y1="1008.06" x2="4350.78" y2="1061.07" gradientTransform="translate(7701.27 3164) rotate(180)" xlink:href="#Безымянный_градиент"/></defs><title>startup2</title><g id="object"><ellipse class="cls-1" cx="1821.57" cy="2291.26" rx="990.51" ry="169.48"/><path class="cls-2" d="M1753.15,2389.85c-90.85,70.72-646.3-244.29-734-748-65.78-377.83,139.56-816.46,332.71-828.61,126-7.92,259.73,164.72,303,318.7,47.8,170-29.76,263.92-58.09,460.75C1531.66,2045.09,1828.72,2331,1753.15,2389.85Z" transform="translate(-142.04 -282)"/><path class="cls-3" d="M1216.27,1585.76c28.65-262.83,189.11-517.68,347.93-636.93-59.76-81.11-137.43-140.27-212.35-135.56-193.16,12.15-398.49,450.77-332.71,828.61,44.73,256.91,211.16,464.73,375.56,597.32C1281.06,2067.94,1189.32,1833,1216.27,1585.76Z" transform="translate(-142.04 -282)"/><path class="cls-2" d="M1609,2431c-46.2,105.45-684.64,93-1001.64-308.08C369.55,1822,341.19,1338.51,505.24,1235.83c107-67,306.83,21.13,418.23,135.91,123,126.75,99.54,246.23,168.37,432.8C1250,2233.3,1647.42,2343.23,1609,2431Z" transform="translate(-142.04 -282)"/><path class="cls-3" d="M753.94,1979.63c-100-244.75-80.28-545.26,2.57-725.76C665.33,1211,568.86,1196,505.23,1235.81c-164,102.68-135.69,586.16,102.11,887.05,161.7,204.6,407,308.06,614.72,346.34C1040.56,2372.75,848,2209.82,753.94,1979.63Z" transform="translate(-142.04 -282)"/><path class="cls-4" d="M1863.76,2219.73l-404.1,251.66c-44.9,28-31.7,102,19.51,109.7A2569.79,2569.79,0,0,0,1806,2609.4a2570.2,2570.2,0,0,0,442.46-28.34c51.17-7.74,64.28-81.75,19.42-109.69Z" transform="translate(-142.04 -282)"/><path class="cls-5" d="M1806,2506.92a2570.2,2570.2,0,0,0,442.46-28.34,52.17,52.17,0,0,0,19.6-7.09l-.18-.12-404.07-251.64-404.1,251.66-.16.1a52.14,52.14,0,0,0,19.67,7.12A2569.46,2569.46,0,0,0,1806,2506.92Z" transform="translate(-142.04 -282)"/><path class="cls-4" d="M2292.06,1622.07c104.48-22.2,224.66,170,265.39,235.17,172,275.06,170.63,623.81,97.22,649-40.24,13.82-69.29-80.88-229.91-169.48-121.36-66.94-163.53-45.29-215.46-92C2053.86,2105.11,2144.83,1653.35,2292.06,1622.07Z" transform="translate(-142.04 -282)"/><path class="cls-5" d="M2654.67,2506.25c6-2.08,11.61-6.37,16.63-12.63-5.66-36.81-11.42-70.78-16.63-95.1-10-46.53-75.09-99.44-137-140.37a236.32,236.32,0,0,1-105.15-217.28l29.21-341.51c-46.6-49.8-99.92-87.86-149.67-77.29-147.23,31.28-238.2,483-82.77,622.74,51.93,46.67,94.1,25,215.46,92C2585.38,2425.38,2614.43,2520.07,2654.67,2506.25Z" transform="translate(-142.04 -282)"/><path class="cls-6" d="M1388.17,2388l-94.59-1271.75H2399.8L2305.21,2388c-130,36.76-318.45,73.47-545.22,61.75A1675.14,1675.14,0,0,1,1388.17,2388Z" transform="translate(-142.04 -282)"/><path class="cls-7" d="M1388.17,2388a1675.15,1675.15,0,0,0,371.8,61.75c40.27,2.08,79.33,2.63,117.08,1.93-25.76-78.13-43.82-166-46.13-262.06-2.85-118.3,19.27-203.74,31.53-256.19,20-85.41,121.63-520.31,80.71-817.18H1293.58Z" transform="translate(-142.04 -282)"/><circle class="cls-4" cx="1830.77" cy="1324.31" r="201.01"/><circle class="cls-8" cx="1830.77" cy="1324.31" r="151.09"/><path class="cls-9" d="M2056.62,1480.59c-17.13,20.38-37.46,43.66-61.48,67.91a915.48,915.48,0,0,1-156.86,126.65,151.27,151.27,0,0,0,110.85,80.4c35.84-26.39,72.28-59.2,102.5-99.31,26.52-35.19,46.34-73.47,60.19-109.18A151.56,151.56,0,0,0,2056.62,1480.59Z" transform="translate(-142.04 -282)"/><path class="cls-4" d="M1416,1622.07c-104.48-22.2-224.66,170-265.39,235.17-172,275.06-170.63,623.81-97.22,649,40.24,13.82,69.29-80.88,229.91-169.48,121.36-66.94,163.53-45.29,215.46-92C1654.17,2105.11,1563.2,1653.35,1416,1622.07Z" transform="translate(-142.04 -282)"/><path class="cls-5" d="M1484.08,2189.63c-26.6,15.43-79.41,27.58-183.93,51.24-18.94,4.29-36.85,8.23-53.54,11.81-42.8,9.2-80.33-29.92-69.34-72.3a1395.41,1395.41,0,0,1,276.52-540.48c-12.07-8.92-24.73-15.05-37.82-17.83-104.48-22.2-224.66,170-265.39,235.17-172,275.06-170.63,623.81-97.22,649,40.24,13.82,69.29-80.88,229.91-169.48,121.36-66.94,163.53-45.29,215.46-92,38.51-34.61,61.88-88.38,73-150.16C1553.17,2129.93,1526.07,2165.27,1484.08,2189.63Z" transform="translate(-142.04 -282)"/><path class="cls-4" d="M1785.94,311.07l-578,830c-23.08,33.14-1.92,75.4,42.68,85.25A2755.68,2755.68,0,0,0,1735,1288.82a2780.9,2780.9,0,0,0,707.73-62.61c44.62-9.82,65.76-52.11,42.68-85.25l-578-829.89C1880.43,272.31,1812.94,272.31,1785.94,311.07Z" transform="translate(-142.04 -282)"/><path class="cls-5" d="M1908.43,664.31c1.54-97-5.13-224-36.31-378.4-30.41-9.69-67.74-1.31-86.18,25.16l-578,830c-23.08,33.14-1.92,75.4,42.68,85.25A2754.82,2754.82,0,0,0,1735,1288.81c75.53,3,148,2.82,217.12.17l1-.63a2275.15,2275.15,0,0,1-38.1-249.62C1898.41,866.57,1907.07,750.14,1908.43,664.31Z" transform="translate(-142.04 -282)"/><rect class="cls-8" x="2309.36" y="1568.23" width="257.29" height="30.09"/><rect class="cls-8" x="2270.05" y="1715.68" width="257.29" height="30.09"/><rect class="cls-8" x="2230.75" y="1863.13" width="257.29" height="30.09"/><rect class="cls-8" x="2191.44" y="2010.58" width="257.29" height="30.09"/><rect class="cls-8" x="2152.13" y="2158.03" width="257.29" height="30.09"/><polygon class="cls-8" points="2323.39 1466.62 2352.5 1474.24 2129.08 2328.04 2097.97 2328.04 2323.39 1466.62"/><polygon class="cls-8" points="2580.68 1466.62 2609.79 1474.24 2386.36 2328.04 2355.26 2328.04 2580.68 1466.62"/><rect class="cls-8" x="2490.66" y="1568.23" width="257.29" height="30.09"/><rect class="cls-8" x="2529.97" y="1715.68" width="257.29" height="30.09"/><rect class="cls-8" x="2569.28" y="1863.13" width="257.29" height="30.09"/><rect class="cls-8" x="2608.59" y="2010.58" width="257.29" height="30.09"/><rect class="cls-8" x="2647.89" y="2158.03" width="257.29" height="30.09"/><polygon class="cls-8" points="2704.81 1474.24 2733.92 1466.62 2959.34 2328.04 2928.23 2328.04 2704.81 1474.24"/><polygon class="cls-8" points="2447.52 1474.24 2476.63 1466.62 2702.05 2328.04 2670.95 2328.04 2447.52 1474.24"/><path class="cls-8" d="M2386,1767.47h566.48a15.05,15.05,0,1,0,0-30.1H2386a15.05,15.05,0,1,0,0,30.1Z" transform="translate(-142.04 -282)"/><path class="cls-8" d="M2794.75,1212.37c4.53,3.59.87,10.32,3.93,25.79,2.32,11.7,5.74,14.56,3.5,19.24-2.81,5.85-12.29,10-19.24,6.56-7.94-3.94-7.5-15.3-7.43-17a22.43,22.43,0,0,1,2.19-8.74q-.87-11.81-1.75-23.61C2787.47,1209.24,2792.37,1210.49,2794.75,1212.37Z" transform="translate(-142.04 -282)"/><path class="cls-10" d="M2718.71,976.37c10,16.63,19.75,34.6,28.93,53.93A618,618,0,0,1,2803,1223l-30.93,3.69a391.06,391.06,0,0,0-45.39-128.15,412.13,412.13,0,0,0-59.36-80.21,33.7,33.7,0,0,1,13-38.26C2691.16,972.45,2706,971.06,2718.71,976.37Z" transform="translate(-142.04 -282)"/><path class="cls-11" d="M2747.64,1030.3c-9.18-19.33-18.94-37.3-28.93-53.93-12.76-5.31-27.55-3.92-38.41,3.69a33.7,33.7,0,0,0-13,38.26,411.83,411.83,0,0,1,59.36,80.21q5.16,9.13,9.61,18.09a129.33,129.33,0,0,1,12.84-40c2.84-5.48,6.73-11.94,10.38-19.62Q2754,1043.73,2747.64,1030.3Z" transform="translate(-142.04 -282)"/><polygon class="cls-8" points="2531.21 656.48 2531.21 631.37 2501.45 631.37 2495.4 656.48 2531.21 656.48"/><path class="cls-8" d="M2647.08,859.87c-13.23,4.56-18.61,16.14-20.19,20.19-3.65,9.39-4.94,24.78,4.85,34.73,11.43,11.62,32.46,10.22,44.42-.81,14.45-13.33,13.7-39,0-50.07C2667.84,857.16,2656,856.79,2647.08,859.87Z" transform="translate(-142.04 -282)"/><path class="cls-12" d="M2626.74,850.57c-7.86,9.41,0,26.4,7,34.88a39.81,39.81,0,0,0,11.16,9.3l1.86,19.07c1.07.65,16.93,9.95,31.63,2.33s16.69-26.3,14.88-37.21c-2.83-17.09-17-28.15-29.3-32.09a42.11,42.11,0,0,0-15.81-1.86C2646.08,844.69,2633.1,843,2626.74,850.57Z" transform="translate(-142.04 -282)"/><polygon class="cls-8" points="2658.48 1414.11 2668.45 1438.56 2685.91 1438.56 2678.43 1414.11 2658.48 1414.11"/><path class="cls-12" d="M2780.06,1727.54a9.31,9.31,0,0,0,3.49,9.48h51.38a16.72,16.72,0,0,0-7-16.46h-17.46l-11,3.49-12.47-3.49A9.31,9.31,0,0,0,2780.06,1727.54Z" transform="translate(-142.04 -282)"/><path class="cls-12" d="M2615,1195.29A2387.63,2387.63,0,0,0,2800,1707.59q5.58-.08,11.22-.12,10.71-.08,21.21,0c-13.74-38-27.26-79.15-40-123.12-7.91-27.29-19.45-69.11-35.33-139.79-14-62.41-31.37-147.06-47.88-250.77Z" transform="translate(-142.04 -282)"/><path class="cls-13" d="M2774.58,1618.3c-29.44-70-54.46-137.67-75.78-202.26a135.56,135.56,0,0,1,15.64-117.13l10.08-15.28q-7.64-42.15-15.29-89.84l-94.28,1.5A2387.63,2387.63,0,0,0,2800,1707.59q5.58-.08,11.22-.12H2814Q2794,1664.34,2774.58,1618.3Z" transform="translate(-142.04 -282)"/><polygon class="cls-8" points="2454.45 1414.11 2449.97 1438.56 2432.51 1438.56 2436 1414.11 2454.45 1414.11"/><path class="cls-12" d="M2544.12,1727.54a9.31,9.31,0,0,0,3.49,9.48H2599a16.72,16.72,0,0,0-7-16.46h-17.46l-11,3.49-12.47-3.49a9.28,9.28,0,0,0-7,7" transform="translate(-142.04 -282)"/><polygon class="cls-12" points="2552.72 928.75 2459.44 1425.59 2429.51 1425.59 2459.44 911.79 2552.72 928.75"/><path class="cls-8" d="M2391,835.42l-12.24-21.85-7.87-7.87-33.65-7A130.81,130.81,0,0,0,2319.3,793c-2.34-.55-5-1.09-5.68,0-1,1.55,2.43,5.42,3.06,6.12l21.41,9.18a26.93,26.93,0,0,0,28.84,20.53l9.61,18.35Z" transform="translate(-142.04 -282)"/><path class="cls-14" d="M2692.51,944.14c31.55,15.9,42.39,45.09,45.29,53.33,17.68,50.09-22,79.59-26.67,150-2.42,36.42,5.44,67.64,14,90.72h-138a501.44,501.44,0,0,1-16.78-238.59c-23.06-2.86-70.26-11.7-116.8-44.19A232.47,232.47,0,0,1,2366,839.62l24.37-14.45a232.41,232.41,0,0,0,63.23,68.63c60.78,43.9,126.9,48.06,151.74,48.44C2612.24,939.62,2653.69,924.58,2692.51,944.14Z" transform="translate(-142.04 -282)"/><path class="cls-11" d="M2720.59,1224.75l-99.82-3a26,26,0,0,1-24.16-18.51,354.92,354.92,0,0,1-1.25-200.57,10.83,10.83,0,0,0-9.89-13.79,274.33,274.33,0,0,1-88.72-19.08c-39.3-15.76-69.29-38.91-87.93-55.09a236.18,236.18,0,0,0,44.83,40.67c46.54,32.49,93.73,41.33,116.8,44.19a501.44,501.44,0,0,0,16.78,238.59h137.95C2723.59,1234,2722.05,1229.49,2720.59,1224.75Z" transform="translate(-142.04 -282)"/><ellipse class="cls-1" cx="562.96" cy="2515.92" rx="345.53" ry="59.12"/><path class="cls-15" d="M718.05,1916.23c-6.72-1.3-21.56-5.23-26.21-6.47a6.19,6.19,0,0,1-2.52-1.36l-10.08-9a6.17,6.17,0,0,1,.4-9.52l4.42-3.33a6.19,6.19,0,0,1,5.86-.86l22.67,8.42a6.11,6.11,0,0,1,2.55,1.79l8.76,10.32a6.16,6.16,0,0,1-.51,8.51h0A6.14,6.14,0,0,1,718.05,1916.23Z" transform="translate(-142.04 -282)"/><path class="cls-16" d="M719.09,2091.28c10.95-6.66,33.11-22.53,43.28-51,16.82-47-7.07-106.16-44.63-121.79a56.83,56.83,0,0,0-15.4-4l16.26-15.42A132.39,132.39,0,0,1,753,1912.32c42.6,23.7,73.27,72.5,74.71,123.14,2,71.71-54.74,139.81-81.82,133C734.52,2165.63,723.17,2148.37,719.09,2091.28Z" transform="translate(-142.04 -282)"/><rect class="cls-4" x="594.96" y="1413.61" width="77.51" height="556.66" transform="translate(-368.82 -178.71) rotate(-7.91)"/><path class="cls-5" d="M627.75,1565.84l27.08-3.76-21-151.22-76.77,10.67,76.61,551.36,76.77-10.67L708,1944.77l-27.08,3.76a31.38,31.38,0,0,1-35.39-26.76L601,1601.23A31.35,31.35,0,0,1,627.75,1565.84Z" transform="translate(-142.04 -282)"/><path class="cls-4" d="M1001.83,1494.89,225.88,1602.71a44,44,0,0,1-49.63-37.52L142.46,1322A44,44,0,0,1,180,1272.36l775.95-107.82a44,44,0,0,1,49.63,37.52l33.79,243.2A44,44,0,0,1,1001.83,1494.89Z" transform="translate(-142.04 -282)"/><path class="cls-5" d="M243.46,1567.07a44,44,0,0,1-49.63-37.52L160,1286.35a44.35,44.35,0,0,1-.41-5.6A44,44,0,0,0,142.46,1322l33.79,243.2a44,44,0,0,0,49.63,37.52l776-107.82a44,44,0,0,0,37.93-44,43.83,43.83,0,0,1-20.35,8.39Z" transform="translate(-142.04 -282)"/><path class="cls-6" d="M401.86,1437.4a40.11,40.11,0,0,1-3.25,22.89q-5,10.64-16.34,17.86t-28.06,9.53q-20,2.77-34-3a44.27,44.27,0,0,1-17-12.43q-7-8.28-8.21-16.84a12.07,12.07,0,0,1,10.57-13.77,10.48,10.48,0,0,1,7.71,1.75,21.83,21.83,0,0,1,6.25,7.49,55.3,55.3,0,0,0,7.07,10,22.85,22.85,0,0,0,9.42,6q5.82,2.05,14.67.83,12.17-1.7,19-8.41t5.63-15.2a15.08,15.08,0,0,0-5.62-10.35,26.72,26.72,0,0,0-11.48-4.93q-6.8-1.3-18-2.29a128.33,128.33,0,0,1-25.47-4.58,39.85,39.85,0,0,1-17.3-10.27q-6.86-7.07-8.48-18.77a34,34,0,0,1,3.33-20.65q4.88-9.51,15.74-15.76t26.43-8.41a67.61,67.61,0,0,1,21.94.1,45.91,45.91,0,0,1,16.2,6.11,34.44,34.44,0,0,1,10.24,9.52,25.11,25.11,0,0,1,4.29,10.58,13.1,13.1,0,0,1-2.23,9.28,11.13,11.13,0,0,1-8.07,5.11c-3.13.44-5.62,0-7.47-1.36a32.09,32.09,0,0,1-6.37-7,35.08,35.08,0,0,0-10.5-10.7q-5.76-3.57-17.18-2-10.59,1.47-16.44,7t-4.94,12.09a11.51,11.51,0,0,0,3.18,6.69,18.79,18.79,0,0,0,6.78,4.22,41.67,41.67,0,0,0,8.29,2.23q4.13.65,13.57,1.68a207.07,207.07,0,0,1,21.5,3,63.4,63.4,0,0,1,16.84,5.64,32.5,32.5,0,0,1,11.75,10.24C398.87,1425,400.92,1430.59,401.86,1437.4Z" transform="translate(-142.04 -282)"/><path class="cls-6" d="M502.77,1350.05l-29.84,4.15,13.63,98.1q1.19,8.48-2,13.1a12.82,12.82,0,0,1-9.19,5.46,13,13,0,0,1-10.48-2.77q-4.39-3.61-5.56-12L445.67,1358l-29.84,4.15q-7,1-10.84-1.64a10.56,10.56,0,0,1-4.54-7.68,10.43,10.43,0,0,1,2.39-8.78q3.12-3.52,9.85-4.47l86.95-12.08q7.1-1,11,1.67a10.66,10.66,0,0,1,4.59,7.72,10.43,10.43,0,0,1-2.37,8.64Q509.78,1349.08,502.77,1350.05Z" transform="translate(-142.04 -282)"/><path class="cls-6" d="M621,1432.68l-8.8-16-54.9,7.63-4,18.21q-2.37,10.65-4.55,14.57t-8.26,4.76a12.94,12.94,0,0,1-9.64-2.51,11.65,11.65,0,0,1-5.15-8,19.21,19.21,0,0,1,.13-5.84q.51-3.08,1.9-8.62l22.36-92.49q.95-4,2.29-9.57a46.78,46.78,0,0,1,3.2-9.41,18.13,18.13,0,0,1,5.38-6.52,19.06,19.06,0,0,1,9.14-3.48,19.25,19.25,0,0,1,9.83.84,18.54,18.54,0,0,1,7,4.72,39.52,39.52,0,0,1,5,6.77q2.16,3.69,5.55,9.89l47.39,82.24q5.52,9.38,6.15,13.89a12.08,12.08,0,0,1-2.72,9.16,13,13,0,0,1-8.9,5.23,12.42,12.42,0,0,1-5.69-.38,11.37,11.37,0,0,1-4.3-2.59,29.42,29.42,0,0,1-4.21-5.61C623.52,1436.94,622.16,1434.65,621,1432.68Zm-59.37-30L602,1397.1l-28.1-52.9Z" transform="translate(-142.04 -282)"/><path class="cls-6" d="M701.14,1378.26l-9.58,1.33,6,43.39q1.18,8.57-2,13.14a13,13,0,0,1-9.29,5.42q-6.54.92-10.72-2.83t-5.32-11.94l-14.44-103.9q-1.23-8.85,2.18-13.35t12.25-5.74l44.49-6.18a138.69,138.69,0,0,1,15.86-1.41,40.09,40.09,0,0,1,12.23,1.54,34.56,34.56,0,0,1,12.3,6.08,33.66,33.66,0,0,1,9,10.53,38.85,38.85,0,0,1,4.47,13.6q2.1,15.11-5.17,25.32t-24.06,16.39a50.61,50.61,0,0,1,15.5,9.49,116.91,116.91,0,0,1,14.07,14.43,119.87,119.87,0,0,1,10.24,14.26q3.86,6.47,4.21,9a9.72,9.72,0,0,1-1,5.53,12,12,0,0,1-4.08,4.79,14.78,14.78,0,0,1-6.61,2.47,13.42,13.42,0,0,1-8-1.09,20.94,20.94,0,0,1-6.15-4.73q-2.71-3-7.48-8.91l-13.5-16.72a101.11,101.11,0,0,0-12.67-13.83,26.22,26.22,0,0,0-10.44-5.87A32.83,32.83,0,0,0,701.14,1378.26Zm7.78-58.92-25.24,3.51,5.16,37.12,24.5-3.4a69,69,0,0,0,16.34-4q6.5-2.64,9.46-7.23t2-11.78a17.63,17.63,0,0,0-4.23-9.51,17.42,17.42,0,0,0-8.81-5.3Q723,1317.39,708.92,1319.34Z" transform="translate(-142.04 -282)"/><path class="cls-6" d="M870.77,1298.92l-29.84,4.15,13.63,98.1q1.19,8.47-2,13.1a12.82,12.82,0,0,1-9.19,5.46,13,13,0,0,1-10.48-2.77q-4.4-3.62-5.56-12l-13.63-98.1L783.83,1311q-7,1-10.84-1.64a10.56,10.56,0,0,1-4.54-7.68,10.43,10.43,0,0,1,2.39-8.78q3.12-3.53,9.85-4.47l86.95-12.08q7.1-1,11,1.67a10.66,10.66,0,0,1,4.59,7.72,10.43,10.43,0,0,1-2.37,8.64Q877.76,1297.95,870.77,1298.92Z" transform="translate(-142.04 -282)"/><polygon class="cls-15" points="703.92 2462.88 704.51 2504.68 684.59 2510.67 676.93 2470.99 703.92 2462.88"/><path class="cls-12" d="M886.2,2803.6c3.79-6.57,4-15.18.63-21.39-3.92-7.2-11.41-8.82-16.31-7-5.19,2-5.63,7.11-11.61,10.28a17.13,17.13,0,0,1-12.35,1.17l-19.92,6a27.12,27.12,0,0,0-4,12.66,28.29,28.29,0,0,0,3.82,16.24Z" transform="translate(-142.04 -282)"/><path class="cls-12" d="M738.56,2236.49c12.5,32.7,24.59,67.25,36,103.67,47.59,151.81,70.56,295,80.76,418l-38.24,11.49c-15.18-75-40.13-168.91-82.49-270.35a1306.5,1306.5,0,0,0-108.66-206.94Z" transform="translate(-142.04 -282)"/><path class="cls-13" d="M643.06,2283.89a1501.86,1501.86,0,0,1,100.08,197.82A1644.67,1644.67,0,0,1,832,2765.2l-14.87,4.47c-15.18-75-40.13-168.91-82.49-270.35a1306.5,1306.5,0,0,0-108.66-206.94Z" transform="translate(-142.04 -282)"/><path class="cls-15" d="M500.86,2407.66l-5.17-41.31c1-1.77,4.63-7.46,11.05-9.3a14.8,14.8,0,0,1,8,0l11.94,38Z" transform="translate(-142.04 -282)"/><path class="cls-12" d="M510.36,2371.17c4.44-1.45,6.94.74,9.51-1.69,4-3.8,4.37-15.51-.45-22a12.7,12.7,0,0,0-10.87-5.08c-6.29.33-10.54,5.47-15.85,11.86-6.32,7.6-12.83,15.38-22.2,26.55-3.59,7.59-2.27,16.63,2.26,20.9a9.37,9.37,0,0,0,11.78,1.13c3.64-2.41,5.91-7.21,5.89-12.43l8.15-5.65C500.9,2379.35,504.61,2373.05,510.36,2371.17Z" transform="translate(-142.04 -282)"/><path class="cls-12" d="M688.83,2305.64c2.71,44.34.75,112.05-28.08,179.66-15,35.09-36.23,85.55-69.76,87.57-40.42,2.44-70.35-67.92-76.55-82.48-17.8-41.78-19.11-81.81-18.57-102.82l29-11.3c7.36,13.52,14.87,28.58,22.2,45.2,7.68,17.42,14.11,34.2,19.53,50,1.31,3.82,5.83,2.94,6.14-1.19q1.93-25.26,4.23-51.06,4.68-52.71,10.42-102.82c7.8-7,33.17-27.87,67-23.73A80.52,80.52,0,0,1,688.83,2305.64Z" transform="translate(-142.04 -282)"/><path class="cls-13" d="M547.05,2421.45c7.68,17.42,14.11,34.2,19.53,50,1.31,3.82,5.83,2.94,6.14-1.19q1.93-25.26,4.23-51.06,4.68-52.71,10.42-102.82a102.51,102.51,0,0,1,25.21-16.73c4.4,23.85-1.31,62.88-5.73,93.57a491.76,491.76,0,0,1-25.38,100.35c-4.05,11-15.49,13.76-22.56,5.51-30.12-35.14-45.68-79.52-43.17-119.41l9.29-3.08C532.33,2390,539.78,2405,547.05,2421.45Z" transform="translate(-142.04 -282)"/><path class="cls-17" d="M687.67,2060.87c-23.59-.63-42.4,7.66-56.16,17.29a71.06,71.06,0,0,0-29.88,50.9q-9.71,93.17-19.4,186.32c12.88,8.13,54.13,31.87,109.41,25.78a169,169,0,0,0,79.66-30.74L770.13,2135A69.19,69.19,0,0,0,743,2080.39,95.51,95.51,0,0,0,687.67,2060.87Z" transform="translate(-142.04 -282)"/><path class="cls-15" d="M594.92,1919.64c6.54-2,20.86-7.55,25.35-9.3a6.11,6.11,0,0,0,2.35-1.63l9-10.08a6.17,6.17,0,0,0-1.44-9.42l-4.76-2.83a6.17,6.17,0,0,0-5.91-.21L597.94,1897a6.11,6.11,0,0,0-2.34,2.06L588,1910.28a6.16,6.16,0,0,0,1.44,8.41h0A6.09,6.09,0,0,0,594.92,1919.64Z" transform="translate(-142.04 -282)"/><path class="cls-18" d="M650.75,2072.7c-7.62-.68-30.1-3.68-49.81-21.67-26.18-23.9-27.2-55.71-27.28-61.16-.69-45.34,36.09-71.63,39.23-73.8l-17.35-20.22c-9.86,5.18-50.36,27.89-68.52,78.09-17,47.14-3.19,87.54,1,99.19,20,55.62,66,80.13,76.55,85.42,20.73,2.74,41.09-6.81,51.73-24.21C668,2115.25,665.83,2090.18,650.75,2072.7Z" transform="translate(-142.04 -282)"/><path class="cls-11" d="M528,2073.14c-4.2-11.66-18-52.06-1-99.19a139.29,139.29,0,0,1,24-41.86c-8.7,38.88-16.64,112.54,27.39,173.9a181,181,0,0,0,48.92,46.27q-12.39,87-24.79,174.1a172.13,172.13,0,0,1-20.33-11q8.32-79.92,16.64-159.85C582.61,2146.43,545.48,2121.6,528,2073.14Z" transform="translate(-142.04 -282)"/><path class="cls-19" d="M706,2040.21q3.79,20.82,7.6,41.65a34.7,34.7,0,0,1-39.33-4q4.29-22,8.59-44Q694.45,2037.06,706,2040.21Z" transform="translate(-142.04 -282)"/><path class="cls-15" d="M717.78,2005.8a49.85,49.85,0,0,1,8,22.62c.4,4.38,2.05,22.26-8,30.07-12.49,9.7-40.42,1.77-48.82-17.65-4.83-11.16-4.35-28.75,8.55-38.34C689.07,1993.9,706.24,1995,717.78,2005.8Z" transform="translate(-142.04 -282)"/><path class="cls-12" d="M713.92,2016c1.67-.21,10-1.43,13.79-7.45,5.88-9.4-.89-28.18-12.69-29.79-9.17-1.25-16.65,8.49-17.1,9.1-4.11-1.86-13.54-5.33-22.89-1.66-16.69,6.56-19.93,30.63-15.45,44.41,1,3,3.55,10.92,9.65,12.41,2.44.6,6,.31,7.17-1.66,1.68-2.92-3.83-6.53-4.69-14.62-.44-4.14.36-9.25,2.21-9.65,2.24-.49,5.39,6.05,5.79,6.9,6.15-8.23,11.68-10.3,15.45-10.76C702.32,2012.38,705.5,2017,713.92,2016Z" transform="translate(-142.04 -282)"/><ellipse class="cls-1" cx="3088.96" cy="2484.88" rx="345.53" ry="59.12"/><circle class="cls-12" cx="3229" cy="1740.76" r="60.94"/><circle class="cls-12" cx="3196.65" cy="1685.09" r="47.39"/><polygon class="cls-15" points="2940.5 2414.93 2940.5 2450.63 2964.77 2450.63 2968.34 2414.93 2940.5 2414.93"/><path class="cls-13" d="M3082.54,2732.63l-20,23.56c-8.88-4.73-18.73-1.42-21.78,5-2.08,4.38-1,10.11,2.5,14.64h20l43.55-26.06a10.06,10.06,0,0,0,5-9.64,10.41,10.41,0,0,0-5-7.5Z" transform="translate(-142.04 -282)"/><path class="cls-12" d="M3219.2,2223.53c-50.2,73.5-116.24,194-136.12,352.9a766,766,0,0,0-5,131.08l40.33,7.56a657.8,657.8,0,0,1,216.94-448.39c-2.53-32-24.93-58.08-53.72-63.95C3246.76,2195.63,3220.87,2221.78,3219.2,2223.53Z" transform="translate(-142.04 -282)"/><path class="cls-13" d="M3312.06,2266.68c-2.53-32-24.93-58.08-53.72-63.95l-.47-.08a60.44,60.44,0,0,1,23.71.08c28.78,5.87,51.19,31.91,53.72,63.95a657.8,657.8,0,0,0-216.94,448.39l-23-4.3a657.74,657.74,0,0,1,216.65-444.09Z" transform="translate(-142.04 -282)"/><polygon class="cls-15" points="3210.74 2435.28 3210.74 2471.34 3189.32 2471.34 3181.82 2428.14 3210.74 2435.28"/><path class="cls-13" d="M3352.78,2753.34a15.55,15.55,0,0,0-11.25-4.46,15.37,15.37,0,0,0-10.17,4.46l-7.5,22.49H3361Z" transform="translate(-142.04 -282)"/><polygon class="cls-12" points="3111.09 1979.32 3179.07 2450.63 3220.97 2450.63 3228.89 1969.31 3111.09 1979.32"/><polygon class="cls-13" points="3111.09 1979.32 3228.89 1969.31 3228.88 1970.43 3120.92 1979.59 3188.86 2450.63 3179.07 2450.63 3111.09 1979.32"/><path class="cls-15" d="M3052.85,2019.89c1.12-2.93-3.72-5.08-11.57-15.15a15.14,15.14,0,0,0-6.1-4.65c-1.18-.48-2.8-1.11-3.76-.41-1.48,1.08-.55,4.66-.11,6.27s4.7,16.58,14.35,17C3048.18,2023,3052,2022.18,3052.85,2019.89Z" transform="translate(-142.04 -282)"/><path class="cls-20" d="M3245.9,2002c-13.17,2.55-17.79,21.52-25.6,30.55-12.73,14.73-31.08,20-50,21-44,2.33-86.75-13.93-119.56-42.93l-14,9.91c15.64,24.14,43.75,58.74,89.56,80.51,63,29.93,153.62,32.83,173.27-3.38,7.45-13.74,3.15-30.27.54-40.31C3292.36,2027.58,3265.83,1998.11,3245.9,2002Z" transform="translate(-142.04 -282)"/><path class="cls-11" d="M3159.92,2113.75c55.81,3.59,86.58-10.33,104.45-28.46,15-15.17,21.91-34.34,27.67-48.11a90.82,90.82,0,0,1,8.05,20.14c2.61,10,6.91,26.57-.54,40.31C3283.21,2127.76,3217.74,2130.81,3159.92,2113.75Z" transform="translate(-142.04 -282)"/><path class="cls-21" d="M3299.71,1985.71c-4.63-.58-28.35-3.09-48.19,10.71-24.62,17.12-22.88,45.16-33.2,99.6-6.32,33.32-16,65.51-25.86,97.9-8.82,29-16.82,57.92,9.12,81.4,17.85,16.16,42.9,21.79,66.94,23.2a242.47,242.47,0,0,0,72.8-6.78c13.9-3.47,28-8.51,38-18.8,22.64-23.35,17.46-63.38,16.7-93-1-37.46-3.63-75.41-15.44-111.23C3368.47,2032,3341.71,1991,3299.71,1985.71Z" transform="translate(-142.04 -282)"/><path class="cls-11" d="M3253.13,2217.58c3.86-1.65,58.94-26.27,67.65-83.36,5.09-33.37-8.44-59.59-13.68-68.64.64-3.74,5.49-29.58,28-40.87a48,48,0,0,1,19.85-5c11.61,14.7,20.15,32.26,25.66,49,11.82,35.82,14.47,73.77,15.44,111.23.1,3.94.28,8.06.46,12.31a110.39,110.39,0,0,1-14.31,14.08c-43.26,35.4-101.77,27.78-123,23.93Q3256.16,2223.92,3253.13,2217.58Z" transform="translate(-142.04 -282)"/><path class="cls-22" d="M3302.35,1958.61l-9.93,33.6a22.56,22.56,0,0,0,28.25,3.82q-1.9-18.33-3.82-36.65Q3309.61,1959,3302.35,1958.61Z" transform="translate(-142.04 -282)"/><path class="cls-23" d="M3279,1963.41c-3.39-12.49,1.59-27.5,13-33.11,14.78-7.26,36.06,3.35,39.69,20.68,3.32,15.82-8.86,33.44-24.83,34.43C3293.77,1986.22,3282.31,1975.57,3279,1963.41Z" transform="translate(-142.04 -282)"/><path class="cls-12" d="M3329.66,1916.69c-11.76-11.59-28.61-8.38-33.1-7.52s-13.39,2.55-18.65,10.08a24.17,24.17,0,0,0-3.91,10.24,26.86,26.86,0,0,0,1.5,13.54c4.86,13,18.58,17.79,21.82,18.81,1.64.52,18.36,5.57,25.58-2.26,3-3.26,3.37-7.68,4.51-7.52,2.06.28.41,14.62,2.73,15.11,2.05.43,7.66-9.92,8.44-21.61C3338.9,1940.58,3339.82,1926.7,3329.66,1916.69Z" transform="translate(-142.04 -282)"/><path class="cls-8" d="M3354.33,2225.38l-72.59,97.79a43.11,43.11,0,0,1-60.31,8.92l-93-69a43.11,43.11,0,0,1-8.92-60.31l72.59-97.79a43.11,43.11,0,0,1,60.31-8.92l93,69A43.11,43.11,0,0,1,3354.33,2225.38Z" transform="translate(-142.04 -282)"/><path class="cls-8" d="M3353,2272.52l-26.5,35.69a30.77,30.77,0,0,1-43,6.37l-112.78-83.72a30.77,30.77,0,0,1-6.37-43.05l26.5-35.69a30.77,30.77,0,0,1,43.05-6.37l112.78,83.72A30.77,30.77,0,0,1,3353,2272.52Z" transform="translate(-142.04 -282)"/><path class="cls-6" d="M3185.83,1868.52c-109.53-81.31-264.24-58.43-345.55,51.11s-58.43,264.24,51.11,345.55c79.7,59.16,183.31,63.15,265.16,18.74l58.55,43.46,124-167-58.55-43.46C3299.34,2025.7,3265.53,1927.69,3185.83,1868.52Z" transform="translate(-142.04 -282)"/><path class="cls-24" d="M3239.06,2295.11c-1.16-.7-2.31-1.46-3.42-2.29l-6.34-4.7-58.55-43.46c-81.85,44.41-185.46,40.42-265.16-18.74-83.77-62.18-116.85-167.3-91.41-262.3-47.93,103.92-18.32,230.66,77.21,301.57,79.7,59.16,183.31,63.15,265.16,18.74l58.55,43.46,24-32.28Z" transform="translate(-142.04 -282)"/><path class="cls-25" d="M3340.68,2268.94a30.78,30.78,0,0,1-39.88,8.43l-4.85,6.53c-.43.58-.87,1.15-1.33,1.7-.15.19-.32.36-.47.55-.31.36-.61.72-.92,1.06s-.39.41-.59.62l-.87.91-.65.63c-.29.27-.57.55-.86.81l-.7.62-.87.74-.74.59-.88.68-.78.57-.89.62c-.27.18-.54.36-.82.53l-.9.56-.85.5c-.3.17-.6.34-.91.5l-.89.47-.91.45-.92.44q-.45.21-.9.39l-1,.4-.89.34-1,.37-.86.28-1.06.33-.8.22c-.38.1-.76.21-1.15.3l-.66.15c-.44.1-.87.2-1.31.28l-.11,0a43.88,43.88,0,0,1-5.48.69l-.23,0c-.51,0-1,0-1.53.05h-.47c-.48,0-1,0-1.45,0h-.55l-1.42-.08-.58,0-1.4-.14-.59-.07q-.69-.09-1.38-.21l-.6-.1q-.69-.12-1.38-.27l-.59-.13c-.46-.1-.92-.22-1.38-.34l-.57-.15-1.38-.4-.55-.18c-.46-.15-.93-.31-1.39-.48l-.51-.19c-.47-.18-.94-.36-1.4-.56l-.46-.2c-.48-.21-.95-.42-1.43-.65l-.38-.19c-.49-.24-1-.49-1.48-.76l-.26-.15c-.53-.29-1.05-.58-1.57-.9h0l-24,32.28,6.34,4.7a43.11,43.11,0,0,0,60.31-8.92l4.85-6.53a30.77,30.77,0,0,0,39.88-8.43l26.5-35.69a30.68,30.68,0,0,0,4.89-26.72Z" transform="translate(-142.04 -282)"/><path class="cls-26" d="M3064.35,2107.77l.14.11-.82-.64.35.28Z" transform="translate(-142.04 -282)"/><path class="cls-26" d="M3089.61,2084.87c-.29.16-.5.29-.65.39.2-.13.41-.24.61-.35C3089.58,2084.89,3089.6,2084.88,3089.61,2084.87Z" transform="translate(-142.04 -282)"/><path class="cls-26" d="M3072.35,2075.26a5.49,5.49,0,0,0-.6-1.15v0C3072,2074.51,3072.17,2074.88,3072.35,2075.26Z" transform="translate(-142.04 -282)"/><path class="cls-26" d="M3012.75,1999.59a.61.61,0,0,1-.07.1c.26-.3.44-.52.55-.66l-.24.25Z" transform="translate(-142.04 -282)"/><path class="cls-26" d="M3234.83,2212.64q-36-18.19-70.77-38.77-34.61-20.49-67.79-43.24c-10.28-7.05-20.53-14.19-30.45-21.74l-1.32-1,.29.23-.43-.34-.25-.19-.43-.34c-1.08-.84-2.16-1.69-3.23-2.55q-3.37-2.7-6.68-5.5c-4.38-3.72-8.65-7.57-12.75-11.6s-7.94-8.13-11.58-12.48c-.85-1-1.69-2-2.52-3.08l-.58-.73-.09-.11-.9-1.22c-1.61-2.17-3.15-4.4-4.61-6.67a110.22,110.22,0,0,1-7.92-14.51l-.38-.88-.49-1.2c-.51-1.28-1-2.58-1.43-3.89-.9-2.63-1.69-5.3-2.35-8-.52-2.12-1-4.25-1.3-6.41a60.29,60.29,0,0,1,0-13,50,50,0,0,1,2.21-8.93c.12-.33.24-.65.37-1,.26-.57.52-1.15.81-1.71a33.86,33.86,0,0,1,2.48-4.08l-.4.46c.16-.18.31-.38.47-.56l0,0c.31-.43.92-1.08.45-.51.46-.52.93-1,1.42-1.53s1-.94,1.55-1.4l.55-.39c.69-.46,1.4-.88,2.12-1.27.43-.23,1.37-.59,1.74-.73a18.57,18.57,0,0,1,9.5-1,39.3,39.3,0,0,1,4.55,1c.8.23,1.6.49,2.39.76l1.42.52.35.14a71.07,71.07,0,0,1,10.1,5.69c.7.48,1.39,1,2.07,1.46l1,.74c1.46,1.17,2.91,2.35,4.31,3.59,2.75,2.41,5.39,5,7.9,7.64,1.2,1.28,2.37,2.58,3.5,3.92.62.73,1.23,1.46,1.83,2.2.45.56,2.46,3.33.66.81,2.13,3,4.31,5.92,6.25,9s3.81,6.45,5.48,9.8c.82,1.64,1.59,3.3,2.33,5l.22.51c.41,1,.83,2,1.22,3.09a112.43,112.43,0,0,1,6,23,42.82,42.82,0,0,1,.21,7.76c-.26,1.2-.65,2.35-.91,3.54-.17.32-.34.63-.52.93l-.21.31-.14.16c-.17.18-.34.34-.51.51l.36-.19-.4.23a1.62,1.62,0,0,1-.19.18,2.67,2.67,0,0,1-.47.35l-.22.07s.06-.11.27-.25l-.57.35c-.16.05-.31.11-.47.15q-.49.14-1,.24a21.69,21.69,0,0,1-2.55,0,22.41,22.41,0,0,1-3.3-.91l-.41-.19a23.43,23.43,0,0,1-2.17-1.25l-.17-.12c.3.26.36.39-.33-.21l-.19-.18a2.12,2.12,0,0,0-.34-.2,1.26,1.26,0,0,1,.3.16c-.49-.44-1-.89-1.43-1.38-.28-.3-.55-.6-.81-.91l-.62-.75.82,1.05c-.64-.34-1.24-1.78-1.62-2.4-.68-1.11-1.2-2.29-1.77-3.44a3.86,3.86,0,0,1-.52-.94l-.06-.17-.09-.17.08.14c-.15-.39-.3-.78-.44-1.17-.34-.93-.65-1.86-.94-2.8-1.13-3.62-2-7.32-2.81-11-1-4.6-6.6-7.73-11.07-6.29a9.21,9.21,0,0,0-6.29,11.07,99.88,99.88,0,0,0,4.45,15.66c2.4,5.94,5.47,11.85,10.32,16.2a31.11,31.11,0,0,0,15.44,7.74c6.22,1,12.91.54,18.31-3.05a24.52,24.52,0,0,0,10.58-16.27c1.1-6.5.54-12.66-.53-19.13a121.25,121.25,0,0,0-10.14-31.71,124.78,124.78,0,0,0-18-27.68,109,109,0,0,0-25.36-22.15c-10.89-6.71-24-10.83-36.74-7.93-10.33,2.34-19,9.81-23.84,19.12-10.06,19.53-6.45,42.09,1.86,61.49s22.62,36.08,38.19,50.19c16.82,15.25,35.6,28.28,54.32,41.07q30.54,20.87,62.33,39.83t64.4,35.81q27.87,14.4,56.47,27.35l10.92-14.72Q3258.75,2224.71,3234.83,2212.64Z" transform="translate(-142.04 -282)"/><path class="cls-26" d="M3078.35,2083.51a5.45,5.45,0,0,0-.56-.43l0,0C3078,2083.24,3078.19,2083.39,3078.35,2083.51Z" transform="translate(-142.04 -282)"/><path class="cls-15" d="M3267.05,2214.9c-6.63-5.63-19.48,1-25.7,6.43-2.19,1.92-3.46,3.05-3.21,4.28,1,5.18,28.11,7.91,32.13-.54C3271.83,2221.78,3269.71,2217.16,3267.05,2214.9Z" transform="translate(-142.04 -282)"/><path class="cls-27" d="M3304.45,2043.52c-6.5,37,43.39,57.11,42.39,92.13-.54,18.88-16,45.95-89.38,77.55l4.77,16.69a121.69,121.69,0,0,0,52.48-3.21c43.12-12.6,81.87-51.33,88.89-99.6,8.5-58.43-30.79-122-61.8-121.37C3325.44,2006,3307.83,2024.29,3304.45,2043.52Z" transform="translate(-142.04 -282)"/></g></svg>