<?xml version="1.0" encoding="utf-8"?>
<!-- Generator: Adobe Illustrator 22.1.0, SVG Export Plug-In . SVG Version: 6.00 Build 0)  -->
<svg version="1.1" id="Слой_1" xmlns="http://www.w3.org/2000/svg" xmlns:xlink="http://www.w3.org/1999/xlink" x="0px" y="0px"
	 viewBox="0 0 3700 3120" style="enable-background:new 0 0 3700 3120;" xml:space="preserve">
<style type="text/css">
	.st0{fill:#F2F2F2;}
	.st1{fill:#1C6476;}
	.st2{fill:#1D464E;}
	.st3{fill:#FF8F6B;}
	.st4{fill:#F08765;}
	.st5{fill:#FFEDBB;}
	.st6{fill:#F7E6B5;}
	.st7{fill:#001F52;}
	.st8{fill:#001F6B;}
	.st9{fill:url(#SVGID_1_);}
	.st10{fill:#D6AE8A;}
	.st11{fill:#BB1E55;}
	.st12{fill:#8D0042;}
	.st13{fill:url(#SVGID_2_);}
	.st14{fill:#FEC3A5;}
	.st15{fill:url(#SVGID_3_);}
	.st16{fill:url(#SVGID_4_);}
	.st17{fill:url(#SVGID_5_);}
	.st18{fill:#FEBE9D;}
	.st19{fill:url(#SVGID_6_);}
	.st20{fill:url(#SVGID_7_);}
	.st21{fill:#FEC8AD;}
	.st22{fill:#FED2BC;}
	.st23{fill:#D5C4AB;}
	.st24{fill:#011635;}
	.st25{fill:#FF8C67;}
	.st26{fill:url(#SVGID_8_);}
</style>
<g id="object">
	<g>
		<g>
			<ellipse class="st0" cx="1963.6" cy="2573.3" rx="990.5" ry="169.5"/>
			<g>
				<g>
					<path class="st1" d="M1753.1,2389.9c-90.9,70.7-646.3-244.3-734-748c-65.8-377.8,139.6-816.5,332.7-828.6
						c126-7.9,259.7,164.7,303,318.7c47.8,170.1-29.8,263.9-58.1,460.8C1531.7,2045.1,1828.7,2331,1753.1,2389.9z"/>
					<path class="st2" d="M1216.3,1585.8c28.6-262.8,189.1-517.7,347.9-636.9c-59.8-81.1-137.4-140.3-212.4-135.6
						c-193.2,12.2-398.5,450.8-332.7,828.6c44.7,256.9,211.2,464.7,375.6,597.3C1281.1,2067.9,1189.3,1832.9,1216.3,1585.8z"/>
				</g>
				<g>
					<path class="st1" d="M1609,2431c-46.2,105.4-684.6,93-1001.6-308.1c-237.8-300.9-266.2-784.4-102.1-887.1
						c107-67,306.8,21.1,418.2,135.9c123,126.8,99.5,246.2,168.4,432.8C1250,2233.3,1647.4,2343.2,1609,2431z"/>
					<path class="st2" d="M753.9,1979.6c-100-244.8-80.3-545.3,2.6-725.8c-91.2-42.9-187.7-57.9-251.3-18.1
						c-164.1,102.7-135.7,586.2,102.1,887c161.7,204.6,407,308.1,614.7,346.3C1040.6,2372.8,848,2209.8,753.9,1979.6z"/>
				</g>
			</g>
			<g>
				<g>
					<path class="st3" d="M1863.8,2219.7l-404.1,251.7c-44.9,28-31.7,101.9,19.5,109.7c99.1,15,208.5,25.6,326.8,28.3
						c164,3.7,312.7-8.7,442.5-28.3c51.2-7.7,64.3-81.8,19.4-109.7L1863.8,2219.7z"/>
					<path class="st4" d="M1806,2506.9c164,3.7,312.7-8.7,442.5-28.3c7.3-1.1,13.9-3.6,19.6-7.1c-0.1,0-0.1-0.1-0.2-0.1
						l-404.1-251.6l-404.1,251.7c-0.1,0-0.1,0.1-0.2,0.1c5.7,3.5,12.3,6,19.7,7.1C1578.3,2493.6,1687.7,2504.3,1806,2506.9z"/>
				</g>
				<g>
					<path class="st3" d="M2292.1,1622.1c104.5-22.2,224.7,170,265.4,235.2c172,275.1,170.6,623.8,97.2,649
						c-40.2,13.8-69.3-80.9-229.9-169.5c-121.4-66.9-163.5-45.3-215.5-92C2053.9,2105.1,2144.8,1653.3,2292.1,1622.1z"/>
					<path class="st4" d="M2654.7,2506.3c6.1-2.1,11.6-6.4,16.6-12.6c-5.7-36.8-11.4-70.8-16.6-95.1c-10-46.5-75.1-99.4-137-140.4
						c-72.2-47.7-112.5-131.1-105.1-217.3l29.2-341.5c-46.6-49.8-99.9-87.9-149.7-77.3c-147.2,31.3-238.2,483-82.8,622.7
						c51.9,46.7,94.1,25,215.5,92C2585.4,2425.4,2614.4,2520.1,2654.7,2506.3z"/>
				</g>
				<g>
					<path class="st5" d="M1388.2,2388l-94.6-1271.8h1106.2L2305.2,2388c-130,36.8-318.4,73.5-545.2,61.8
						C1613.4,2442.2,1487.7,2416.3,1388.2,2388z"/>
					<path class="st6" d="M1388.2,2388c99.5,28.3,225.3,54.2,371.8,61.8c40.3,2.1,79.3,2.6,117.1,1.9
						c-25.8-78.1-43.8-166-46.1-262.1c-2.9-118.3,19.3-203.7,31.5-256.2c20-85.4,121.6-520.3,80.7-817.2h-649.6L1388.2,2388z"/>
				</g>
				<g>
					<circle class="st3" cx="1972.8" cy="1606.3" r="201"/>
					<circle class="st7" cx="1972.8" cy="1606.3" r="151.1"/>
					<path class="st8" d="M2056.6,1480.6c-17.1,20.4-37.5,43.7-61.5,67.9c-52.5,53-106.5,94.4-156.9,126.7
						c21.6,42.1,62.4,72.8,110.9,80.4c35.8-26.4,72.3-59.2,102.5-99.3c26.5-35.2,46.3-73.5,60.2-109.2
						C2100.2,1519.9,2080.9,1496.8,2056.6,1480.6z"/>
				</g>
				<g>
					<path class="st3" d="M1416,1622.1c-104.5-22.2-224.7,170-265.4,235.2c-172,275.1-170.6,623.8-97.2,649
						c40.2,13.8,69.3-80.9,229.9-169.5c121.4-66.9,163.5-45.3,215.5-92C1654.2,2105.1,1563.2,1653.3,1416,1622.1z"/>
					<path class="st4" d="M1484.1,2189.6c-26.6,15.4-79.4,27.6-183.9,51.2c-18.9,4.3-36.9,8.2-53.5,11.8
						c-42.8,9.2-80.3-29.9-69.3-72.3c22-84.8,56.7-185.6,112.4-292.9c52.1-100.3,110.2-182.4,164.2-247.6
						c-12.1-8.9-24.7-15.1-37.8-17.8c-104.5-22.2-224.7,170-265.4,235.2c-172,275.1-170.6,623.8-97.2,649
						c40.2,13.8,69.3-80.9,229.9-169.5c121.4-66.9,163.5-45.3,215.5-92c38.5-34.6,61.9-88.4,73-150.2
						C1553.2,2129.9,1526.1,2165.3,1484.1,2189.6z"/>
				</g>
				<g>
					<path class="st3" d="M1785.9,311.1l-578.1,830c-23.1,33.1-1.9,75.4,42.7,85.3c133.9,29.6,297.3,55.1,484.4,62.5
						c286.2,11.4,528.8-23.2,707.7-62.6c44.6-9.8,65.8-52.1,42.7-85.3c-192.7-276.6-385.3-553.3-578-829.9
						C1880.4,272.3,1812.9,272.3,1785.9,311.1z"/>
					<path class="st4" d="M1908.4,664.3c1.5-97-5.1-224-36.3-378.4c-30.4-9.7-67.7-1.3-86.2,25.2l-578.1,830
						c-23.1,33.1-1.9,75.4,42.7,85.3c133.9,29.6,297.3,55.1,484.4,62.5c75.5,3,148,2.8,217.1,0.2c0.3-0.2,0.6-0.4,1-0.6
						c-12.2-58.2-28-144.3-38.1-249.6C1898.4,866.6,1907.1,750.1,1908.4,664.3z"/>
				</g>
			</g>
			<g>
				<g>
					<g>
						<g>
							<g>
								<rect x="2451.4" y="1850.2" class="st7" width="257.3" height="30.1"/>
							</g>
							<g>
								<rect x="2412.1" y="1997.7" class="st7" width="257.3" height="30.1"/>
							</g>
							<g>
								<rect x="2372.8" y="2145.1" class="st7" width="257.3" height="30.1"/>
							</g>
							<g>
								<rect x="2333.5" y="2292.6" class="st7" width="257.3" height="30.1"/>
							</g>
							<g>
								<rect x="2294.2" y="2440" class="st7" width="257.3" height="30.1"/>
							</g>
						</g>
						<polygon class="st7" points="2465.4,1748.6 2494.5,1756.2 2271.1,2610 2240,2610 						"/>
						<polygon class="st7" points="2722.7,1748.6 2751.8,1756.2 2528.4,2610 2497.3,2610 						"/>
					</g>
					<g>
						<g>
							<g>
								<rect x="2632.7" y="1850.2" class="st7" width="257.3" height="30.1"/>
							</g>
							<g>
								<rect x="2672" y="1997.7" class="st7" width="257.3" height="30.1"/>
							</g>
							<g>
								<rect x="2711.3" y="2145.1" class="st7" width="257.3" height="30.1"/>
							</g>
							<g>
								<rect x="2750.6" y="2292.6" class="st7" width="257.3" height="30.1"/>
							</g>
							<g>
								<rect x="2789.9" y="2440" class="st7" width="257.3" height="30.1"/>
							</g>
						</g>
						<polygon class="st7" points="2846.9,1756.2 2876,1748.6 3101.4,2610 3070.3,2610 						"/>
						<polygon class="st7" points="2589.6,1756.2 2618.7,1748.6 2844.1,2610 2813,2610 						"/>
					</g>
					<g>
						<path class="st7" d="M2385.9,1767.5h566.5c8.3,0,15.1-6.7,15.1-15.1s-6.7-15.1-15.1-15.1h-566.5c-8.3,0-15.1,6.7-15.1,15.1
							S2377.6,1767.5,2385.9,1767.5z"/>
					</g>
				</g>
				<g>
					<g>
						<path class="st7" d="M2794.8,1212.4c4.5,3.6,0.9,10.3,3.9,25.8c2.3,11.7,5.7,14.6,3.5,19.2c-2.8,5.8-12.3,10-19.2,6.6
							c-7.9-3.9-7.5-15.3-7.4-17.1c0.1-3.8,1.3-6.9,2.2-8.7c-0.6-7.9-1.2-15.7-1.8-23.6C2787.5,1209.2,2792.4,1210.5,2794.8,1212.4z
							"/>
						
							<linearGradient id="SVGID_1_" gradientUnits="userSpaceOnUse" x1="2665.6487" y1="2064.0684" x2="2803.01" y2="2064.0684" gradientTransform="matrix(1 0 0 -1 0 3164)">
							<stop  offset="0" style="stop-color:#FAD8BA"/>
							<stop  offset="1" style="stop-color:#F6C89F"/>
						</linearGradient>
						<path class="st9" d="M2718.7,976.4c10,16.6,19.8,34.6,28.9,53.9c33.6,70.8,48.8,137.7,55.4,192.7c-10.3,1.2-20.6,2.5-30.9,3.7
							c-5.4-32.6-17.4-78.5-45.4-128.2c-19.1-33.9-40.7-60.4-59.4-80.2c-4.7-14.3,0.6-29.6,13-38.3
							C2691.2,972.4,2705.9,971.1,2718.7,976.4z"/>
						<path class="st10" d="M2747.6,1030.3c-9.2-19.3-18.9-37.3-28.9-53.9c-12.8-5.3-27.6-3.9-38.4,3.7c-12.4,8.7-17.6,24-13,38.3
							c18.7,19.8,40.2,46.3,59.4,80.2c3.4,6.1,6.6,12.1,9.6,18.1c2.6-16.6,7.5-29.7,12.8-40c2.8-5.5,6.7-11.9,10.4-19.6
							C2755.8,1048.1,2751.9,1039.3,2747.6,1030.3z"/>
					</g>
					<g>
						<polygon class="st7" points="2673.3,938.5 2673.3,913.4 2643.5,913.4 2637.4,938.5 						"/>
						<path class="st7" d="M2647.1,859.9c-13.2,4.6-18.6,16.1-20.2,20.2c-3.6,9.4-4.9,24.8,4.9,34.7c11.4,11.6,32.5,10.2,44.4-0.8
							c14.4-13.3,13.7-39,0-50.1C2667.8,857.2,2656,856.8,2647.1,859.9z"/>
						<path class="st11" d="M2626.7,850.6c-7.9,9.4,0,26.4,7,34.9c3.9,4.8,8.3,7.7,11.2,9.3c0.6,6.4,1.2,12.7,1.9,19.1
							c1.1,0.7,16.9,10,31.6,2.3c14.7-7.7,16.7-26.3,14.9-37.2c-2.8-17.1-17-28.2-29.3-32.1c-6.3-2-11.9-2.1-15.8-1.9
							C2646.1,844.7,2633.1,843,2626.7,850.6z"/>
					</g>
					<g>
						<g>
							<g>
								<polygon class="st7" points="2800.5,1696.1 2810.5,1720.6 2827.9,1720.6 2820.5,1696.1 								"/>
								<path class="st11" d="M2780.1,1727.5c-0.8,3.6,0.6,7.3,3.5,9.5h51.4c0.2-1.5,0.6-5-1-9c-1.7-4.3-4.8-6.6-6-7.5h-17.5
									l-11,3.5l-12.5-3.5C2783.6,1721.4,2780.9,1724.1,2780.1,1727.5z"/>
							</g>
							<path class="st11" d="M2614.9,1195.3c17.9,75.6,41.3,158.2,72.3,245.9c35.3,100,74.3,188.9,112.7,266.4
								c3.7-0.1,7.5-0.1,11.2-0.1c7.1-0.1,14.2-0.1,21.2,0c-13.7-38-27.3-79.2-40-123.1c-7.9-27.3-19.4-69.1-35.3-139.8
								c-14-62.4-31.4-147.1-47.9-250.8C2677.8,1194.3,2646.4,1194.8,2614.9,1195.3z"/>
							<path class="st12" d="M2774.6,1618.3c-29.4-70-54.5-137.7-75.8-202.3c-13-39.4-7.2-82.5,15.6-117.1
								c3.4-5.1,6.7-10.2,10.1-15.3c-5.1-28.1-10.2-58.1-15.3-89.8l-94.3,1.5c17.9,75.6,41.3,158.2,72.3,245.9
								c35.3,100,74.3,188.9,112.7,266.4c3.7-0.1,7.5-0.1,11.2-0.1c0.9,0,1.8,0,2.7,0C2800.7,1678.7,2787.5,1649,2774.6,1618.3z"/>
						</g>
						<g>
							<g>
								<polygon class="st7" points="2596.5,1696.1 2592,1720.6 2574.6,1720.6 2578,1696.1 								"/>
								<path class="st11" d="M2544.1,1727.5c-0.8,3.6,0.6,7.3,3.5,9.5h51.4c0.2-1.5,0.6-5-1-9c-1.7-4.3-4.8-6.6-6-7.5h-17.5
									l-11,3.5l-12.5-3.5C2547.6,1721.4,2544.9,1724.1,2544.1,1727.5"/>
							</g>
							<polygon class="st11" points="2694.8,1210.8 2601.5,1707.6 2571.6,1707.6 2601.5,1193.8 							"/>
						</g>
					</g>
					<g>
						<path class="st7" d="M2391,835.4c-4.1-7.3-8.2-14.6-12.2-21.8c-2.6-2.6-5.2-5.2-7.9-7.9c-11.2-2.3-22.4-4.7-33.6-7
							c-7.6-3-13.7-4.7-17.9-5.7c-2.3-0.5-5-1.1-5.7,0c-1,1.5,2.4,5.4,3.1,6.1c7.1,3.1,14.3,6.1,21.4,9.2c0.5,2.2,2.6,9.7,10.1,15.3
							c8.1,6,16.8,5.4,18.8,5.2c3.2,6.1,6.4,12.2,9.6,18.3C2381.4,843.3,2386.2,839.3,2391,835.4z"/>
						
							<linearGradient id="SVGID_2_" gradientUnits="userSpaceOnUse" x1="2366.02" y1="2132.3201" x2="2742.3123" y2="2132.3201" gradientTransform="matrix(1 0 0 -1 0 3164)">
							<stop  offset="0" style="stop-color:#FAD8BA"/>
							<stop  offset="1" style="stop-color:#F6C89F"/>
						</linearGradient>
						<path class="st13" d="M2692.5,944.1c31.6,15.9,42.4,45.1,45.3,53.3c17.7,50.1-22,79.6-26.7,150c-2.4,36.4,5.4,67.6,14,90.7
							c-46,0-92,0-137.9,0c-10.6-33.2-20.9-76.9-23.4-128.8c-2.1-42.6,1.5-79.8,6.7-109.8c-23.1-2.9-70.3-11.7-116.8-44.2
							c-59.4-41.5-80.9-95.7-87.6-115.8c8.1-4.8,16.3-9.6,24.4-14.5c11.1,18.4,30.6,45.1,63.2,68.6c60.8,43.9,126.9,48.1,151.7,48.4
							C2612.2,939.6,2653.7,924.6,2692.5,944.1z"/>
						<path class="st10" d="M2720.6,1224.8c-33.3-1-66.6-2-99.8-3c-11.2-0.3-21-7.8-24.2-18.5c-9-30.2-17.3-72-14.6-121.7
							c1.7-30.6,7.1-57.3,13.3-78.9c1.9-6.7-2.9-13.4-9.9-13.8c-24.7-1.2-55.7-5.8-88.7-19.1c-39.3-15.8-69.3-38.9-87.9-55.1
							c11.8,13.8,26.5,27.9,44.8,40.7c46.5,32.5,93.7,41.3,116.8,44.2c-5.2,30-8.8,67.3-6.7,109.8c2.6,51.8,12.8,95.6,23.4,128.8
							h137.9C2723.6,1234,2722.1,1229.5,2720.6,1224.8z"/>
					</g>
				</g>
			</g>
		</g>
		<g>
			<ellipse class="st0" cx="705" cy="2797.9" rx="345.5" ry="59.1"/>
			<g>
				<g>
					<path class="st14" d="M718.1,1916.2c-6.7-1.3-21.6-5.2-26.2-6.5c-0.9-0.3-1.8-0.7-2.5-1.4l-10.1-9c-2.9-2.6-2.7-7.2,0.4-9.5
						l4.4-3.3c1.7-1.3,3.9-1.6,5.9-0.9l22.7,8.4c1,0.4,1.9,1,2.6,1.8l8.8,10.3c2.1,2.5,1.9,6.3-0.5,8.5l0,0
						C722,1916,720,1916.6,718.1,1916.2z"/>
					
						<linearGradient id="SVGID_3_" gradientUnits="userSpaceOnUse" x1="8841.2793" y1="1413.3237" x2="8956.0703" y2="1413.3237" gradientTransform="matrix(-0.994 0.1092 -0.1092 -0.994 9769.5869 2463.2778)">
						<stop  offset="0" style="stop-color:#FAD8BA"/>
						<stop  offset="1" style="stop-color:#F6C89F"/>
					</linearGradient>
					<path class="st15" d="M719.1,2091.3c10.9-6.7,33.1-22.5,43.3-51c16.8-47-7.1-106.2-44.6-121.8c-6-2.5-11.4-3.5-15.4-4
						c5.4-5.1,10.8-10.3,16.3-15.4c9.1,2.1,21.3,5.9,34.4,13.2c42.6,23.7,73.3,72.5,74.7,123.1c2,71.7-54.7,139.8-81.8,133
						C734.5,2165.6,723.2,2148.4,719.1,2091.3z"/>
				</g>
				<g>
					<g>
						
							<rect x="595" y="1413.6" transform="matrix(0.9905 -0.1376 0.1376 0.9905 -226.7804 103.2914)" class="st3" width="77.5" height="556.7"/>
						<path class="st4" d="M627.8,1565.8l27.1-3.8l-21-151.2l-76.8,10.7l76.6,551.4l76.8-10.7l-2.4-17.4l-27.1,3.8
							c-17.2,2.4-33-9.6-35.4-26.8L601,1601.2C598.6,1584.1,610.6,1568.2,627.8,1565.8z"/>
					</g>
					<g>
						<path class="st3" d="M1001.8,1494.9l-776,107.8c-24.1,3.3-46.3-13.4-49.6-37.5L142.5,1322c-3.3-24.1,13.5-46.3,37.5-49.6
							l776-107.8c24.1-3.3,46.3,13.4,49.6,37.5l33.8,243.2C1042.7,1469.3,1025.9,1491.6,1001.8,1494.9z"/>
						<path class="st4" d="M243.5,1567.1c-24.1,3.3-46.3-13.4-49.6-37.5L160,1286.3c-0.3-1.9-0.4-3.8-0.4-5.6
							c-12.4,9.3-19.5,24.8-17.2,41.2l33.8,243.2c3.3,24.1,25.6,40.9,49.6,37.5l776-107.8c22.2-3.1,38.2-22.2,37.9-44
							c-5.8,4.3-12.7,7.3-20.3,8.4L243.5,1567.1z"/>
					</g>
					<g>
						<path class="st5" d="M401.9,1437.4c1.1,8.2,0.1,15.8-3.3,22.9s-8.8,13.1-16.3,17.9c-7.6,4.8-16.9,8-28.1,9.5
							c-13.3,1.8-24.7,0.9-34-3c-6.6-2.8-12.3-6.9-17-12.4s-7.4-11.1-8.2-16.8c-0.5-3.3,0.3-6.3,2.3-9s4.7-4.3,8.3-4.8
							c2.9-0.4,5.5,0.2,7.7,1.8c2.3,1.6,4.3,4.1,6.3,7.5c2.3,4.1,4.7,7.4,7.1,10s5.5,4.6,9.4,6s8.8,1.6,14.7,0.8
							c8.1-1.1,14.4-3.9,19-8.4s6.4-9.6,5.6-15.2c-0.6-4.5-2.5-7.9-5.6-10.3c-3.1-2.4-6.9-4.1-11.5-4.9s-10.5-1.6-18-2.3
							c-10-0.9-18.5-2.4-25.5-4.6s-12.7-5.6-17.3-10.3s-7.4-11-8.5-18.8c-1-7.4,0.1-14.3,3.3-20.7s8.5-11.6,15.7-15.8
							c7.3-4.2,16.1-7,26.4-8.4c8.3-1.2,15.6-1.1,21.9,0.1c6.3,1.2,11.7,3.3,16.2,6.1c4.5,2.8,7.9,6,10.2,9.5s3.8,7,4.3,10.6
							c0.4,3.3-0.3,6.3-2.2,9.3s-4.6,4.6-8.1,5.1c-3.1,0.4-5.6,0-7.5-1.4c-1.8-1.3-4-3.7-6.4-7c-3.2-4.8-6.7-8.3-10.5-10.7
							s-9.6-3-17.2-2c-7.1,1-12.5,3.3-16.4,7c-3.9,3.7-5.5,7.7-4.9,12.1c0.4,2.7,1.4,4.9,3.2,6.7c1.8,1.8,4,3.2,6.8,4.2
							c2.8,1.1,5.5,1.8,8.3,2.2s7.3,1,13.6,1.7c7.9,0.7,15,1.7,21.5,3s12.1,3.2,16.8,5.6s8.7,5.9,11.8,10.2
							S400.9,1430.6,401.9,1437.4z"/>
						<path class="st5" d="M502.8,1350.1l-29.8,4.2l13.6,98.1c0.8,5.7,0.1,10-2,13.1s-5.2,4.9-9.2,5.5c-4.1,0.6-7.6-0.4-10.5-2.8
							c-2.9-2.4-4.8-6.4-5.6-12l-13.6-98.1l-29.8,4.2c-4.7,0.7-8.3,0.1-10.8-1.6s-4.1-4.3-4.5-7.7c-0.5-3.5,0.3-6.4,2.4-8.8
							s5.4-3.8,9.8-4.5l86.9-12.1c4.7-0.7,8.4-0.1,11,1.7s4.1,4.3,4.6,7.7s-0.3,6.3-2.4,8.6C510.8,1347.9,507.4,1349.4,502.8,1350.1
							z"/>
						<path class="st5" d="M621,1432.7l-8.8-16.1l-54.9,7.6l-4,18.2c-1.6,7.1-3.1,12-4.6,14.6c-1.4,2.6-4.2,4.2-8.3,4.8
							c-3.4,0.5-6.7-0.4-9.6-2.5s-4.7-4.8-5.2-8c-0.3-1.8-0.2-3.8,0.1-5.8c0.3-2.1,1-4.9,1.9-8.6l22.4-92.5c0.6-2.7,1.4-5.8,2.3-9.6
							s2-6.9,3.2-9.4s3-4.7,5.4-6.5c2.3-1.8,5.4-3,9.1-3.5c3.8-0.5,7.1-0.3,9.8,0.8c2.8,1.1,5.1,2.7,6.9,4.7c1.9,2.1,3.5,4.3,5,6.8
							s3.3,5.8,5.6,9.9l47.4,82.2c3.7,6.3,5.7,10.9,6.2,13.9c0.4,3.1-0.5,6.2-2.7,9.2s-5.2,4.7-8.9,5.2c-2.2,0.3-4,0.2-5.7-0.4
							c-1.6-0.6-3.1-1.4-4.3-2.6c-1.2-1.2-2.6-3.1-4.2-5.6S622.2,1434.7,621,1432.7z M561.6,1402.7l40.3-5.6l-28.1-52.9
							L561.6,1402.7z"/>
						<path class="st5" d="M701.1,1378.3l-9.6,1.3l6,43.4c0.8,5.7,0.1,10.1-2,13.1s-5.2,4.9-9.3,5.4c-4.4,0.6-7.9-0.3-10.7-2.8
							s-4.6-6.5-5.3-11.9l-14.4-103.9c-0.8-5.9-0.1-10.3,2.2-13.3c2.3-3,6.4-4.9,12.3-5.7l44.5-6.2c6.1-0.8,11.4-1.3,15.9-1.4
							c4.4-0.1,8.5,0.4,12.2,1.5c4.5,1.2,8.6,3.2,12.3,6.1c3.7,2.9,6.7,6.4,9,10.5s3.8,8.7,4.5,13.6c1.4,10.1-0.3,18.5-5.2,25.3
							c-4.8,6.8-12.9,12.3-24.1,16.4c5.2,1.9,10.4,5.1,15.5,9.5s9.8,9.2,14.1,14.4s7.7,9.9,10.2,14.3s4,7.3,4.2,9
							c0.3,1.8-0.1,3.6-1,5.5c-0.9,1.9-2.3,3.5-4.1,4.8c-1.8,1.3-4,2.1-6.6,2.5c-3.1,0.4-5.8,0.1-8-1.1s-4.3-2.7-6.2-4.7
							s-4.3-5-7.5-8.9l-13.5-16.7c-4.9-6.2-9.1-10.8-12.7-13.8c-3.6-3.1-7.1-5-10.4-5.9C710.1,1377.7,706,1377.6,701.1,1378.3z
							 M708.9,1319.3l-25.2,3.5l5.2,37.1l24.5-3.4c6.6-0.9,12-2.3,16.3-4c4.3-1.8,7.5-4.2,9.5-7.2c2-3.1,2.6-7,2-11.8
							c-0.5-3.8-1.9-6.9-4.2-9.5c-2.3-2.6-5.2-4.4-8.8-5.3C724.7,1317.8,718.3,1318,708.9,1319.3z"/>
						<path class="st5" d="M870.8,1298.9l-29.8,4.2l13.6,98.1c0.8,5.7,0.1,10-2,13.1s-5.2,4.9-9.2,5.5c-4.1,0.6-7.6-0.4-10.5-2.8
							c-2.9-2.4-4.8-6.4-5.6-12l-13.6-98.1l-29.8,4.2c-4.7,0.7-8.3,0.1-10.8-1.6c-2.6-1.7-4.1-4.3-4.5-7.7c-0.5-3.5,0.3-6.4,2.4-8.8
							s5.4-3.8,9.8-4.5l86.9-12.1c4.7-0.7,8.4-0.1,11,1.7s4.1,4.3,4.6,7.7s-0.3,6.3-2.4,8.6C878.8,1296.8,875.4,1298.3,870.8,1298.9
							z"/>
					</g>
				</g>
				<g>
					<g>
						<g>
							<polygon class="st14" points="846,2744.9 846.6,2786.7 826.6,2792.7 819,2753 							"/>
							<path class="st11" d="M886.2,2803.6c3.8-6.6,4-15.2,0.6-21.4c-3.9-7.2-11.4-8.8-16.3-7c-5.2,2-5.6,7.1-11.6,10.3
								c-4.6,2.4-9.1,2-12.3,1.2l-19.9,6c-1.1,1.8-3.6,6.2-4,12.7c-0.6,8.6,2.9,14.7,3.8,16.2L886.2,2803.6z"/>
						</g>
						<g>
							<path class="st11" d="M738.6,2236.5c12.5,32.7,24.6,67.3,36,103.7c47.6,151.8,70.6,295,80.8,418
								c-12.8,3.8-25.5,7.7-38.2,11.5c-15.2-75-40.1-168.9-82.5-270.4c-35.4-84.8-74.1-153.6-108.7-206.9
								C663.5,2273.8,701,2255.1,738.6,2236.5z"/>
							<path class="st12" d="M643.1,2283.9c32.8,54.4,67.7,120.2,100.1,197.8c43.8,104.8,71.2,202.5,88.8,283.5
								c-5,1.5-9.9,3-14.9,4.5c-15.2-75-40.1-168.9-82.5-270.4c-35.4-84.8-74.1-153.6-108.7-206.9
								C631.7,2289.6,637.4,2286.7,643.1,2283.9z"/>
						</g>
					</g>
					<g>
						<g>
							<path class="st14" d="M500.9,2407.7l-5.2-41.3c1-1.8,4.6-7.5,11.1-9.3c3.4-1,6.3-0.5,8,0c4,12.7,8,25.3,11.9,38L500.9,2407.7
								z"/>
							<path class="st11" d="M510.4,2371.2c4.4-1.4,6.9,0.7,9.5-1.7c4-3.8,4.4-15.5-0.4-22c-3.9-5.3-9.7-5.1-10.9-5.1
								c-6.3,0.3-10.5,5.5-15.8,11.9c-6.3,7.6-12.8,15.4-22.2,26.6c-3.6,7.6-2.3,16.6,2.3,20.9c3,2.9,7.8,3.8,11.8,1.1
								c3.6-2.4,5.9-7.2,5.9-12.4c2.7-1.9,5.4-3.8,8.2-5.6C500.9,2379.4,504.6,2373.1,510.4,2371.2z"/>
						</g>
						<g>
							<path class="st11" d="M688.8,2305.6c2.7,44.3,0.8,112.1-28.1,179.7c-15,35.1-36.2,85.6-69.8,87.6
								c-40.4,2.4-70.3-67.9-76.6-82.5c-17.8-41.8-19.1-81.8-18.6-102.8c9.7-3.8,19.3-7.5,29-11.3c7.4,13.5,14.9,28.6,22.2,45.2
								c7.7,17.4,14.1,34.2,19.5,50c1.3,3.8,5.8,2.9,6.1-1.2c1.3-16.8,2.7-33.9,4.2-51.1c3.1-35.1,6.6-69.4,10.4-102.8
								c7.8-7,33.2-27.9,67-23.7C669.2,2294.4,681,2300.5,688.8,2305.6z"/>
							<path class="st12" d="M547.1,2421.4c7.7,17.4,14.1,34.2,19.5,50c1.3,3.8,5.8,2.9,6.1-1.2c1.3-16.8,2.7-33.9,4.2-51.1
								c3.1-35.1,6.6-69.4,10.4-102.8c4.1-3.6,12.9-11.1,25.2-16.7c4.4,23.9-1.3,62.9-5.7,93.6c-5.9,41.1-16,75-25.4,100.4
								c-4.1,11-15.5,13.8-22.6,5.5c-30.1-35.1-45.7-79.5-43.2-119.4c4.7-1.5,4.6-1.5,9.3-3.1C532.3,2390,539.8,2405,547.1,2421.4z"
								/>
						</g>
					</g>
				</g>
				
					<linearGradient id="SVGID_4_" gradientUnits="userSpaceOnUse" x1="9062.8633" y1="962.5079" x2="9251.9336" y2="962.5079" gradientTransform="matrix(-1 0 0 -1 9834.1641 3164)">
					<stop  offset="0" style="stop-color:#FAD8BA"/>
					<stop  offset="1" style="stop-color:#F6C89F"/>
				</linearGradient>
				<path class="st16" d="M687.7,2060.9c-23.6-0.6-42.4,7.7-56.2,17.3c-16.9,11.8-27.8,30.4-29.9,50.9
					c-6.5,62.1-12.9,124.2-19.4,186.3c12.9,8.1,54.1,31.9,109.4,25.8c38.9-4.3,66.5-21.3,79.7-30.7c-0.4-58.5-0.8-116.9-1.2-175.4
					c-0.1-21.4-10.1-41.7-27.2-54.6C727.2,2068.4,708,2061.4,687.7,2060.9z"/>
				<g>
					<g>
						<path class="st14" d="M594.9,1919.6c6.5-2,20.9-7.6,25.3-9.3c0.9-0.3,1.7-0.9,2.3-1.6l9-10.1c2.6-2.9,1.9-7.4-1.4-9.4
							l-4.8-2.8c-1.8-1.1-4-1.2-5.9-0.2l-21.6,10.8c-0.9,0.5-1.8,1.2-2.3,2.1l-7.6,11.2c-1.8,2.7-1.2,6.4,1.4,8.4l0,0
							C591,1919.9,593.1,1920.2,594.9,1919.6z"/>
						
							<linearGradient id="SVGID_5_" gradientUnits="userSpaceOnUse" x1="9170.3906" y1="1136.5679" x2="9315.4287" y2="1136.5679" gradientTransform="matrix(-1 0 0 -1 9834.1641 3164)">
							<stop  offset="0" style="stop-color:#FAD8BA"/>
							<stop  offset="1" style="stop-color:#F6C89F"/>
						</linearGradient>
						<path class="st17" d="M650.8,2072.7c-7.6-0.7-30.1-3.7-49.8-21.7c-26.2-23.9-27.2-55.7-27.3-61.2
							c-0.7-45.3,36.1-71.6,39.2-73.8c-5.8-6.7-11.6-13.5-17.3-20.2c-9.9,5.2-50.4,27.9-68.5,78.1c-17,47.1-3.2,87.5,1,99.2
							c20,55.6,66,80.1,76.6,85.4c20.7,2.7,41.1-6.8,51.7-24.2C668,2115.3,665.8,2090.2,650.8,2072.7z"/>
					</g>
					<path class="st10" d="M528,2073.1c-4.2-11.7-18.1-52.1-1-99.2c6.1-17,14.8-30.8,24-41.9c-8.7,38.9-16.6,112.5,27.4,173.9
						c15,20.9,32.8,35.8,48.9,46.3c-8.3,58-16.5,116.1-24.8,174.1c-9.3-4.3-16.3-8.4-20.3-11c5.6-53.3,11.1-106.6,16.6-159.9
						C582.6,2146.4,545.5,2121.6,528,2073.1z"/>
				</g>
				<g>
					<path class="st18" d="M706,2040.2c2.5,13.9,5.1,27.8,7.6,41.6c-2.8,1.6-9.6,4.7-18.5,4.3c-11.1-0.6-18.5-6.3-20.8-8.3
						c2.9-14.6,5.7-29.3,8.6-44C690.6,2036,698.3,2038.1,706,2040.2z"/>
					<path class="st14" d="M717.8,2005.8c2.7,4.1,7,12,8,22.6c0.4,4.4,2.1,22.3-8,30.1c-12.5,9.7-40.4,1.8-48.8-17.6
						c-4.8-11.2-4.3-28.8,8.6-38.3C689.1,1993.9,706.2,1995,717.8,2005.8z"/>
					<path class="st11" d="M713.9,2016c1.7-0.2,10-1.4,13.8-7.4c5.9-9.4-0.9-28.2-12.7-29.8c-9.2-1.3-16.7,8.5-17.1,9.1
						c-4.1-1.9-13.5-5.3-22.9-1.7c-16.7,6.6-19.9,30.6-15.4,44.4c1,3,3.6,10.9,9.7,12.4c2.4,0.6,6,0.3,7.2-1.7
						c1.7-2.9-3.8-6.5-4.7-14.6c-0.4-4.1,0.4-9.3,2.2-9.6c2.2-0.5,5.4,6.1,5.8,6.9c6.2-8.2,11.7-10.3,15.4-10.8
						C702.3,2012.4,705.5,2017,713.9,2016z"/>
				</g>
			</g>
		</g>
		<g>
			<ellipse class="st0" cx="3231" cy="2766.9" rx="345.5" ry="59.1"/>
			<g>
				<g>
					<circle class="st11" cx="3371" cy="2022.8" r="60.9"/>
					<circle class="st11" cx="3338.7" cy="1967.1" r="47.4"/>
				</g>
				<g>
					<g>
						<g>
							<polygon class="st14" points="3082.5,2696.9 3082.5,2732.6 3106.8,2732.6 3110.4,2696.9 							"/>
							<path class="st12" d="M3082.5,2732.6c-6.7,7.9-13.3,15.7-20,23.6c-8.9-4.7-18.7-1.4-21.8,5c-2.1,4.4-1,10.1,2.5,14.6
								c6.7,0,13.3,0,20,0l43.6-26.1c3.4-2,5.4-5.8,5-9.6c-0.5-4.8-4.6-7.3-5-7.5H3082.5z"/>
						</g>
						<g>
							<path class="st11" d="M3219.2,2223.5c-50.2,73.5-116.2,194-136.1,352.9c-5.9,47.6-6.9,91.6-5,131.1c13.4,2.5,26.9,5,40.3,7.6
								c3.4-54.5,15.8-143.3,62.4-241.4c48.7-102.5,113.3-169.9,154.6-207c-2.5-32.1-24.9-58.1-53.7-63.9
								C3246.8,2195.6,3220.9,2221.8,3219.2,2223.5z"/>
							<path class="st12" d="M3312.1,2266.7c-2.5-32.1-24.9-58.1-53.7-63.9c-0.2,0-0.3-0.1-0.5-0.1c7.2-1.4,15.2-1.6,23.7,0.1
								c28.8,5.9,51.2,31.9,53.7,63.9c-41.3,37.1-105.9,104.5-154.6,207c-46.6,98.1-59,186.8-62.4,241.4c-7.6-1.4-15.3-2.9-22.9-4.3
								c3.8-54.8,16.7-141.5,62.1-237.1C3206.2,2371.2,3270.8,2303.8,3312.1,2266.7z"/>
						</g>
					</g>
					<g>
						<g>
							<polygon class="st14" points="3352.8,2717.3 3352.8,2753.3 3331.4,2753.3 3323.9,2710.1 							"/>
							<path class="st12" d="M3352.8,2753.3c-0.7-0.7-4.8-4.7-11.3-4.5c-5.8,0.2-9.4,3.7-10.2,4.5c-2.5,7.5-5,15-7.5,22.5h37.1
								L3352.8,2753.3z"/>
						</g>
						<g>
							<polygon class="st11" points="3253.1,2261.3 3321.1,2732.6 3363,2732.6 3370.9,2251.3 							"/>
							<polygon class="st12" points="3253.1,2261.3 3370.9,2251.3 3370.9,2252.4 3263,2261.6 3330.9,2732.6 3321.1,2732.6 							
								"/>
						</g>
					</g>
				</g>
				<g>
					<path class="st14" d="M3052.9,2019.9c1.1-2.9-3.7-5.1-11.6-15.1c-0.4-0.5-2.5-3.2-6.1-4.6c-1.2-0.5-2.8-1.1-3.8-0.4
						c-1.5,1.1-0.6,4.7-0.1,6.3c0.5,1.7,4.7,16.6,14.4,17C3048.2,2023,3052,2022.2,3052.9,2019.9z"/>
					
						<linearGradient id="SVGID_6_" gradientUnits="userSpaceOnUse" x1="4397.0762" y1="1076.8502" x2="4395.4697" y2="935.4833" gradientTransform="matrix(-0.7789 0.6271 -0.6271 -0.7789 7221.9307 58.302)">
						<stop  offset="0" style="stop-color:#FAD8BA"/>
						<stop  offset="1" style="stop-color:#F6C89F"/>
					</linearGradient>
					<path class="st19" d="M3245.9,2002c-13.2,2.6-17.8,21.5-25.6,30.6c-12.7,14.7-31.1,20-50,21c-44,2.3-86.8-13.9-119.6-42.9
						c-4.7,3.3-9.4,6.6-14,9.9c15.6,24.1,43.8,58.7,89.6,80.5c63,29.9,153.6,32.8,173.3-3.4c7.5-13.7,3.1-30.3,0.5-40.3
						C3292.4,2027.6,3265.8,1998.1,3245.9,2002z"/>
					<path class="st10" d="M3159.9,2113.8c55.8,3.6,86.6-10.3,104.4-28.5c14.9-15.2,21.9-34.3,27.7-48.1c3.5,6.4,6.3,13.3,8,20.1
						c2.6,10,6.9,26.6-0.5,40.3C3283.2,2127.8,3217.7,2130.8,3159.9,2113.8z"/>
				</g>
				<g>
					
						<linearGradient id="SVGID_7_" gradientUnits="userSpaceOnUse" x1="4579.1226" y1="1018.3599" x2="4431.3296" y2="1021.5728" gradientTransform="matrix(-1 0 0 -1 7701.2739 3164)">
						<stop  offset="0" style="stop-color:#FAD8BA"/>
						<stop  offset="1" style="stop-color:#F6C89F"/>
					</linearGradient>
					<path class="st20" d="M3299.7,1985.7c-4.6-0.6-28.4-3.1-48.2,10.7c-24.6,17.1-22.9,45.2-33.2,99.6c-6.3,33.3-16,65.5-25.9,97.9
						c-8.8,29-16.8,57.9,9.1,81.4c17.9,16.2,42.9,21.8,66.9,23.2c24.4,1.4,49.1-0.9,72.8-6.8c13.9-3.5,28-8.5,38-18.8
						c22.6-23.4,17.5-63.4,16.7-93c-1-37.5-3.6-75.4-15.4-111.2C3368.5,2032,3341.7,1991,3299.7,1985.7z"/>
					<path class="st10" d="M3253.1,2217.6c3.9-1.6,58.9-26.3,67.6-83.4c5.1-33.4-8.4-59.6-13.7-68.6c0.6-3.7,5.5-29.6,28-40.9
						c7.4-3.7,14.6-4.8,19.9-5c11.6,14.7,20.1,32.3,25.7,49c11.8,35.8,14.5,73.8,15.4,111.2c0.1,3.9,0.3,8.1,0.5,12.3
						c-4.7,5.5-9.5,10.2-14.3,14.1c-43.3,35.4-101.8,27.8-123,23.9C3257.2,2226,3255.1,2221.8,3253.1,2217.6z"/>
				</g>
				<g>
					<path class="st21" d="M3302.4,1958.6c-3.3,11.2-6.6,22.4-9.9,33.6c1.3,1.4,5.7,5.7,13,6.9c7.8,1.2,13.7-2.1,15.3-3.1
						c-1.3-12.2-2.5-24.4-3.8-36.7C3312,1959.1,3307.2,1958.9,3302.4,1958.6z"/>
					<path class="st22" d="M3279,1963.4c-3.4-12.5,1.6-27.5,13-33.1c14.8-7.3,36.1,3.3,39.7,20.7c3.3,15.8-8.9,33.4-24.8,34.4
						C3293.8,1986.2,3282.3,1975.6,3279,1963.4z"/>
					<path class="st11" d="M3329.7,1916.7c-11.8-11.6-28.6-8.4-33.1-7.5c-4.5,0.8-13.4,2.6-18.6,10.1c-2.9,4.2-3.7,8.7-3.9,10.2
						c-1,6.6,0.9,11.8,1.5,13.5c4.9,13,18.6,17.8,21.8,18.8c1.6,0.5,18.4,5.6,25.6-2.3c3-3.3,3.4-7.7,4.5-7.5
						c2.1,0.3,0.4,14.6,2.7,15.1c2,0.4,7.7-9.9,8.4-21.6C3338.9,1940.6,3339.8,1926.7,3329.7,1916.7z"/>
				</g>
				<g>
					<path class="st7" d="M3354.3,2225.4l-72.6,97.8c-14.2,19.1-41.2,23.1-60.3,8.9l-93-69c-19.1-14.2-23.1-41.2-8.9-60.3l72.6-97.8
						c14.2-19.1,41.2-23.1,60.3-8.9l93,69C3364.5,2179.3,3368.5,2206.3,3354.3,2225.4z"/>
					<path class="st7" d="M3353,2272.5l-26.5,35.7c-10.1,13.6-29.4,16.5-43.1,6.4l-112.8-83.7c-13.6-10.1-16.5-29.4-6.4-43.1
						l26.5-35.7c10.1-13.6,29.4-16.5,43.1-6.4l112.8,83.7C3360.3,2239.6,3363.1,2258.9,3353,2272.5z"/>
					<path class="st5" d="M3185.8,1868.5c-109.5-81.3-264.2-58.4-345.6,51.1c-81.3,109.5-58.4,264.2,51.1,345.5
						c79.7,59.2,183.3,63.1,265.2,18.7l58.6,43.5l124-167l-58.6-43.5C3299.3,2025.7,3265.5,1927.7,3185.8,1868.5z"/>
					<path class="st23" d="M3239.1,2295.1c-1.2-0.7-2.3-1.5-3.4-2.3l-6.3-4.7l-58.6-43.5c-81.9,44.4-185.5,40.4-265.2-18.7
						c-83.8-62.2-116.9-167.3-91.4-262.3c-47.9,103.9-18.3,230.7,77.2,301.6c79.7,59.2,183.3,63.1,265.2,18.7l58.6,43.5
						L3239.1,2295.1L3239.1,2295.1z"/>
					<path class="st24" d="M3340.7,2268.9c-9.4,12.6-26.5,16-39.9,8.4l-4.9,6.5c-0.4,0.6-0.9,1.1-1.3,1.7c-0.1,0.2-0.3,0.4-0.5,0.6
						c-0.3,0.4-0.6,0.7-0.9,1.1c-0.2,0.2-0.4,0.4-0.6,0.6c-0.3,0.3-0.6,0.6-0.9,0.9c-0.2,0.2-0.4,0.4-0.6,0.6
						c-0.3,0.3-0.6,0.6-0.9,0.8c-0.2,0.2-0.5,0.4-0.7,0.6c-0.3,0.3-0.6,0.5-0.9,0.7c-0.3,0.2-0.5,0.4-0.7,0.6
						c-0.3,0.2-0.6,0.5-0.9,0.7c-0.3,0.2-0.5,0.4-0.8,0.6c-0.3,0.2-0.6,0.4-0.9,0.6c-0.3,0.2-0.5,0.4-0.8,0.5
						c-0.3,0.2-0.6,0.4-0.9,0.6c-0.3,0.2-0.6,0.3-0.9,0.5c-0.3,0.2-0.6,0.3-0.9,0.5c-0.3,0.2-0.6,0.3-0.9,0.5
						c-0.3,0.1-0.6,0.3-0.9,0.4c-0.3,0.1-0.6,0.3-0.9,0.4c-0.3,0.1-0.6,0.3-0.9,0.4c-0.3,0.1-0.6,0.3-1,0.4
						c-0.3,0.1-0.6,0.2-0.9,0.3c-0.3,0.1-0.7,0.3-1,0.4c-0.3,0.1-0.6,0.2-0.9,0.3c-0.4,0.1-0.7,0.2-1.1,0.3
						c-0.3,0.1-0.5,0.1-0.8,0.2c-0.4,0.1-0.8,0.2-1.1,0.3c-0.2,0.1-0.4,0.1-0.7,0.1c-0.4,0.1-0.9,0.2-1.3,0.3c0,0-0.1,0-0.1,0
						c-1.8,0.4-3.6,0.6-5.5,0.7c-0.1,0-0.1,0-0.2,0c-0.5,0-1,0-1.5,0.1c-0.2,0-0.3,0-0.5,0c-0.5,0-1,0-1.4,0c-0.2,0-0.4,0-0.6,0
						c-0.5,0-0.9-0.1-1.4-0.1c-0.2,0-0.4,0-0.6,0c-0.5,0-0.9-0.1-1.4-0.1c-0.2,0-0.4,0-0.6-0.1c-0.5-0.1-0.9-0.1-1.4-0.2
						c-0.2,0-0.4-0.1-0.6-0.1c-0.5-0.1-0.9-0.2-1.4-0.3c-0.2,0-0.4-0.1-0.6-0.1c-0.5-0.1-0.9-0.2-1.4-0.3c-0.2-0.1-0.4-0.1-0.6-0.1
						c-0.5-0.1-0.9-0.3-1.4-0.4c-0.2-0.1-0.4-0.1-0.6-0.2c-0.5-0.1-0.9-0.3-1.4-0.5c-0.2-0.1-0.3-0.1-0.5-0.2
						c-0.5-0.2-0.9-0.4-1.4-0.6c-0.1-0.1-0.3-0.1-0.5-0.2c-0.5-0.2-0.9-0.4-1.4-0.6c-0.1-0.1-0.3-0.1-0.4-0.2
						c-0.5-0.2-1-0.5-1.5-0.8c-0.1-0.1-0.2-0.1-0.3-0.1c-0.5-0.3-1.1-0.6-1.6-0.9l0,0l-24,32.3l6.3,4.7
						c19.1,14.2,46.1,10.2,60.3-8.9l4.9-6.5c13.3,7.6,30.5,4.2,39.9-8.4l26.5-35.7c5.9-8,7.4-17.9,4.9-26.7L3340.7,2268.9z"/>
					<g>
						<path class="st25" d="M3064.4,2107.8c0.1,0,0.1,0.1,0.1,0.1c-0.4-0.3-0.7-0.5-0.8-0.6c0.1,0.1,0.2,0.2,0.4,0.3
							C3064.1,2107.6,3064.2,2107.7,3064.4,2107.8z"/>
						<path class="st25" d="M3089.6,2084.9c-0.3,0.2-0.5,0.3-0.6,0.4C3089.2,2085.1,3089.4,2085,3089.6,2084.9
							C3089.6,2084.9,3089.6,2084.9,3089.6,2084.9z"/>
						<path class="st25" d="M3072.4,2075.3c0,0-0.1-0.2-0.6-1.1c0,0,0,0,0,0C3072,2074.5,3072.2,2074.9,3072.4,2075.3z"/>
						<path class="st25" d="M3012.8,1999.6c0,0,0,0.1-0.1,0.1c0.3-0.3,0.4-0.5,0.6-0.7c-0.1,0.1-0.2,0.2-0.2,0.3
							C3012.9,1999.4,3012.8,1999.5,3012.8,1999.6z"/>
						<path class="st25" d="M3234.8,2212.6c-24-12.1-47.6-25.1-70.8-38.8c-23.1-13.7-45.7-28.1-67.8-43.2
							c-10.3-7.1-20.5-14.2-30.4-21.7c-0.4-0.3-0.9-0.7-1.3-1c0.1,0.1,0.2,0.1,0.3,0.2c-0.1-0.1-0.3-0.2-0.4-0.3
							c-0.1-0.1-0.2-0.1-0.3-0.2c-0.3-0.2-0.8-0.6-0.4-0.3c-1.1-0.8-2.2-1.7-3.2-2.6c-2.3-1.8-4.5-3.6-6.7-5.5
							c-4.4-3.7-8.6-7.6-12.8-11.6c-4.1-4-7.9-8.1-11.6-12.5c-0.9-1-1.7-2-2.5-3.1c-0.2-0.2-0.4-0.5-0.6-0.7c0,0-0.1-0.1-0.1-0.1
							c-0.3-0.4-0.6-0.8-0.9-1.2c-1.6-2.2-3.1-4.4-4.6-6.7c-3-4.6-5.7-9.5-7.9-14.5c-0.1-0.1-0.2-0.5-0.4-0.9
							c-0.2-0.4-0.4-1-0.5-1.2c-0.5-1.3-1-2.6-1.4-3.9c-0.9-2.6-1.7-5.3-2.4-8c-0.5-2.1-1-4.3-1.3-6.4c-0.5-4.3-0.5-8.7,0-13
							c0.5-3,1.2-6,2.2-8.9c0.1-0.3,0.2-0.6,0.4-1c0.3-0.6,0.5-1.1,0.8-1.7c0.7-1.4,1.6-2.8,2.5-4.1c-0.1,0.1-0.3,0.3-0.4,0.5
							c0.2-0.2,0.3-0.4,0.5-0.6c0,0,0,0,0-0.1c0.3-0.4,0.9-1.1,0.4-0.5c0.5-0.5,0.9-1,1.4-1.5c0.5-0.5,1-0.9,1.6-1.4
							c0.2-0.1,0.4-0.3,0.6-0.4c0.7-0.5,1.4-0.9,2.1-1.3c0.4-0.2,1.4-0.6,1.7-0.7c1.3-0.4,2.5-0.8,3.9-1c1.9-0.2,3.8-0.2,5.6,0
							c1.5,0.3,3.1,0.6,4.6,1c0.8,0.2,1.6,0.5,2.4,0.8c0.5,0.2,0.9,0.3,1.4,0.5c0.1,0.1,0.2,0.1,0.4,0.1c3.5,1.6,6.9,3.5,10.1,5.7
							c0.7,0.5,1.4,1,2.1,1.5c0.3,0.2,0.7,0.5,1,0.7c1.5,1.2,2.9,2.4,4.3,3.6c2.8,2.4,5.4,5,7.9,7.6c1.2,1.3,2.4,2.6,3.5,3.9
							c0.6,0.7,1.2,1.5,1.8,2.2c0.4,0.6,2.5,3.3,0.7,0.8c2.1,3,4.3,5.9,6.3,9c2,3.2,3.8,6.4,5.5,9.8c0.8,1.6,1.6,3.3,2.3,5
							c0.1,0.2,0.1,0.3,0.2,0.5c0.4,1,0.8,2.1,1.2,3.1c2.8,7.4,4.8,15.2,6,23c0.3,2.6,0.4,5.2,0.2,7.8c-0.3,1.2-0.6,2.4-0.9,3.5
							c-0.2,0.3-0.3,0.6-0.5,0.9c-0.1,0.1-0.1,0.2-0.2,0.3c-0.1,0.1-0.1,0.1-0.1,0.2c-0.2,0.2-0.3,0.3-0.5,0.5
							c0.1-0.1,0.2-0.1,0.4-0.2c-0.1,0.1-0.3,0.1-0.4,0.2c-0.1,0.1-0.1,0.1-0.2,0.2c-0.2,0.2-0.3,0.3-0.5,0.4
							c-0.1,0-0.1,0.1-0.2,0.1c0,0,0.1-0.1,0.3-0.3c-0.2,0.1-0.4,0.2-0.6,0.4c-0.2,0.1-0.3,0.1-0.5,0.1c-0.3,0.1-0.7,0.2-1,0.2
							c-0.9,0.1-1.7,0-2.6,0c-1.1-0.2-2.2-0.5-3.3-0.9c-0.1-0.1-0.3-0.1-0.4-0.2c-0.7-0.4-1.5-0.8-2.2-1.3c-0.1,0-0.1-0.1-0.2-0.1
							c0.3,0.3,0.4,0.4-0.3-0.2c-0.1-0.1-0.1-0.1-0.2-0.2c-0.1-0.1-0.2-0.2-0.3-0.2c0.1,0,0.2,0.1,0.3,0.2c-0.5-0.4-1-0.9-1.4-1.4
							c-0.3-0.3-0.6-0.6-0.8-0.9c-0.2-0.3-0.4-0.5-0.6-0.8c0.3,0.4,0.5,0.7,0.8,1.1c-0.6-0.3-1.2-1.8-1.6-2.4
							c-0.7-1.1-1.2-2.3-1.8-3.4c-0.1,0-0.4-0.6-0.5-0.9c0-0.1,0-0.1-0.1-0.2c0-0.1-0.1-0.1-0.1-0.2c0,0.1,0.1,0.1,0.1,0.1
							c-0.1-0.4-0.3-0.8-0.4-1.2c-0.3-0.9-0.6-1.9-0.9-2.8c-1.1-3.6-2-7.3-2.8-11c-1-4.6-6.6-7.7-11.1-6.3
							c-4.8,1.6-7.4,6.1-6.3,11.1c1.2,5.3,2.4,10.6,4.4,15.7c2.4,5.9,5.5,11.9,10.3,16.2c4.3,3.9,9.7,6.8,15.4,7.7
							c6.2,1,12.9,0.5,18.3-3.1c5.6-3.7,9.5-9.6,10.6-16.3c1.1-6.5,0.5-12.7-0.5-19.1c-1.8-11-5.4-21.6-10.1-31.7
							c-4.7-10-10.9-19.3-18-27.7c-7.2-8.5-15.8-16.3-25.4-22.2c-10.9-6.7-24-10.8-36.7-7.9c-10.3,2.3-19,9.8-23.8,19.1
							c-10.1,19.5-6.4,42.1,1.9,61.5c8.3,19.5,22.6,36.1,38.2,50.2c16.8,15.3,35.6,28.3,54.3,41.1c20.4,13.9,41.1,27.2,62.3,39.8
							c21.1,12.6,42.6,24.5,64.4,35.8c18.6,9.6,37.4,18.7,56.5,27.4l10.9-14.7C3266.9,2228.4,3250.8,2220.7,3234.8,2212.6z"/>
						<path class="st25" d="M3078.4,2083.5c-0.1-0.1-0.4-0.3-0.6-0.4c0,0,0,0,0,0C3078,2083.2,3078.2,2083.4,3078.4,2083.5z"/>
					</g>
				</g>
				<g>
					<path class="st14" d="M3267.1,2214.9c-6.6-5.6-19.5,1-25.7,6.4c-2.2,1.9-3.5,3.1-3.2,4.3c1,5.2,28.1,7.9,32.1-0.5
						C3271.8,2221.8,3269.7,2217.2,3267.1,2214.9z"/>
					
						<linearGradient id="SVGID_8_" gradientUnits="userSpaceOnUse" x1="4437.5293" y1="1008.0561" x2="4350.7813" y2="1061.0687" gradientTransform="matrix(-1 0 0 -1 7701.2739 3164)">
						<stop  offset="0" style="stop-color:#FAD8BA"/>
						<stop  offset="1" style="stop-color:#F6C89F"/>
					</linearGradient>
					<path class="st26" d="M3304.5,2043.5c-6.5,37,43.4,57.1,42.4,92.1c-0.5,18.9-16,45.9-89.4,77.6c1.6,5.6,3.2,11.1,4.8,16.7
						c11.7,1.8,30.8,3.1,52.5-3.2c43.1-12.6,81.9-51.3,88.9-99.6c8.5-58.4-30.8-122-61.8-121.4
						C3325.4,2006,3307.8,2024.3,3304.5,2043.5z"/>
				</g>
			</g>
		</g>
	</g>
</g>
</svg>
